<?xml version="1.0" encoding="utf-8"?>
<!-- Generator: Adobe Illustrator 19.0.0, SVG Export Plug-In . SVG Version: 6.00 Build 0)  -->
<svg version="1.1" id="Layer_1" xmlns="http://www.w3.org/2000/svg" xmlns:xlink="http://www.w3.org/1999/xlink" x="0px" y="0px"
	 viewBox="-178 258.2 253.4 276.8" style="enable-background:new -178 258.2 253.4 276.8;" xml:space="preserve">
<style type="text/css">
	.st0{fill:#53395E;}
	.st1{fill:#533755;}
	.st2{fill:#FCF4FC;}
	.st3{fill:#FAF3FB;}
	.st4{fill:#FAF2FB;}
	.st5{fill:#FBF3FC;}
	.st6{fill:#FAF3FA;}
	.st7{fill:#FAF3FC;}
	.st8{fill:#FAF4FC;}
	.st9{fill:#FBF2FB;}
	.st10{fill:#FBF2FC;}
	.st11{fill:#FBF4FC;}
	.st12{fill:#F9F1FA;}
	.st13{fill:#FAF1FB;}
	.st14{fill:#F8F1F9;}
	.st15{fill:#FAF2FA;}
	.st16{fill:#FCF9FD;}
	.st17{fill:#FAEFFB;}
	.st18{fill:#E9D7CD;}
	.st19{fill:#FDBB6F;}
	.st20{fill:#FCBC6E;}
	.st21{fill:#F09745;}
	.st22{fill:#EF9845;}
	.st23{fill:#EF9746;}
	.st24{fill:#EDA05C;}
	.st25{fill:#EC9848;}
	.st26{fill:#FDFDFC;}
	.st27{fill:#EF9748;}
	.st28{fill:#522E40;}
	.st29{fill:#512F41;}
	.st30{fill:#EBCDB7;}
	.st31{fill:#FBFCFA;}
	.st32{fill:#E9CEBA;}
	.st33{fill:#FBF8F3;}
	.st34{fill:#E79B53;}
	.st35{fill:#FAF8F7;}
	.st36{fill:#EDC591;}
	.st37{fill:#D1803F;}
	.st38{fill:#F3ECEE;}
	.st39{fill:#FCF5F0;}
	.st40{fill:#F9EBF4;}
	.st41{fill:#52395B;}
	.st42{fill:#523758;}
	.st43{fill:#4F3A54;}
	.st44{fill:#47334F;}
	.st45{fill:#4C3B55;}
	.st46{fill:#4A3D52;}
	.st47{fill:#4B3E4F;}
	.st48{fill:#51395B;}
	.st49{fill:#51395A;}
	.st50{fill:#523A5A;}
	.st51{fill:#563451;}
	.st52{fill:#513954;}
	.st53{fill:#513953;}
	.st54{fill:#50384D;}
	.st55{fill:#FEFEFE;}
	.st56{fill:#553956;}
	.st57{fill:#FCCFA2;}
	.st58{fill:#FCFCFB;}
	.st59{fill:#FBF9F9;}
	.st60{fill:#573850;}
	.st61{fill:#E39D57;}
	.st62{fill:#553752;}
	.st63{fill:#FBF8F1;}
	.st64{fill:#523C4F;}
	.st65{fill:#FAF9EF;}
	.st66{fill:#FDF7EB;}
	.st67{fill:#FAE4C6;}
	.st68{fill:#FEF1D4;}
	.st69{fill:#FDCF9E;}
	.st70{fill:#FCFCF7;}
	.st71{fill:#F5C07B;}
	.st72{fill:#EE556F;}
	.st73{fill:#D8395C;}
	.st74{fill:#E9CDB7;}
	.st75{fill:#F36F8E;}
</style>
<title>Asset 11</title>
<g id="Layer_2">
	<g id="Layer_1-2">
		<path class="st0" d="M-59.8,481.1l16.5-9.4c3-1.7,6-3.4,9-5.1c0.8-0.4,1.3-0.8,1.1-1.9c-3.7-14.9,0.5-28.1,8.5-40.6
			c4.2-6.6,10.3-10.3,17.1-13.4c14.1-6.4,28.7-8.6,43.8-4.4c17.1,4.8,30,15,36.4,31.9c5.5,14.4,2.5,28-4.6,41.3
			c-5.5,10.2-14.4,15.6-24.6,19.3c-19.3,7.1-37.8,5.9-55.4-5.1c-6.4-4-11.8-9.4-15.6-15.9c-1-1.6-2-1.8-3.6-1.5
			c-9.1,1.6-18.1,3.2-27.2,4.8C-58.9,481.1-59.4,481.1-59.8,481.1z"/>
		<path class="st1" d="M-84.9,380.8c0,1.3,0.9,1.8,1.5,2.5c6.8,7.3,7.5,15.5,2,23.7c-0.5,0.6-0.7,1.3-0.8,2c0,9-1.4,18-4.2,26.5
			c-0.5,1.5,0.1,2.9,0,4.3c-0.3,3.4,1.1,7-1,10.3c-0.4,0.7,0.2,2,0.5,3c0.7,2.2,1.9,4.3,3.6,5.9c12.7,12.8,14.3,28.1,9.8,44.6
			c-2,7.2-5.3,14.1-9.8,20.1c-3.5,4.9-8.8,8.1-14.7,9c-13.6,2.1-27.3,2.6-41,1.5c-5.2-0.3-10.3-1.1-15.4-2.2
			c-4.1-0.9-7.8-3.2-10.4-6.6c-10.8-14.2-15.6-29.9-12.1-47.7c1.4-6.8,5.1-12.4,9.7-17.5c2.2-2.2,3.9-4.8,4.9-7.7
			c0.4-1.3,0.8-2.6-0.9-3.5c-0.5-0.3-0.7-0.8-0.6-1.4c0.2-3.1-0.4-6.3,0.3-9.4c0.1-0.9-0.1-1.8-0.5-2.6c-2-5.4-4.1-10.8-6.2-16.2
			c-6.5-17.2,1.1-33.4,15-42.3c5.3-3.4,11.3-5.6,17.5-6.7c1.3-0.2,1.9-0.4,1.3-2.1c-3.8-10.4-1.5-19.9,4.7-28.7
			c3.4-4.7,7.4-9.1,11.9-12.9c2.3-1.9,4.1-4.2,5.3-6.9c0.9-2.3,0.9-4.5-1-6.4s-4.3-2.8-7-1.5c-1.6,0.7-3.1,1.6-4.7,2.1
			c-5.3,1.9-9.8-2.1-8.7-7.6c1-4.8,4.7-7,9-8.2c8.2-2.4,19.6,1.5,24.8,8.2c5.7,7.4,5,16.2-1.9,23.4c-3.3,3.5-7.3,6.2-11.1,9.1
			c-7.2,5.6-11.5,12.7-12.2,21.9c-0.1,0.9-0.1,1.8,0,2.7c0.5,5.8,0.6,5.3,6.2,6.2c6.6,1.1,13.3-0.1,19.9,1.4
			c2.6,0.6,3.2-0.2,3.7-3.9c0.6-4.6,3.4-6.5,7.9-5.4c1.4,0.4,2.7,0.9,3.9,1.7c2.7,1.7,5.3,3.8,7.5,6.1c5.3,5,10.8,9.7,17.4,12.9
			c4.6,2.2,6.1,5.5,4.6,8.7c-1.6,3.6-7,5.8-11,4.6c-2.9-1-5.5-2.9-7.3-5.4c-2-2.5-3.7-5.3-6-7.5C-81.8,382.1-83,380.9-84.9,380.8z"
			/>
		<path class="st2" d="M49.5,468.2c4-4.6,5.7-4.2,7.1-0.4c0.5-0.6,1-1.2,1.6-1.8c1.4-1.2,3-0.8,3.5,1c0.5,2.1,0.8,4.3,0.7,6.5
			c0,0.5,0,1-0.6,1s-0.7-0.5-0.8-1c-0.1-1.6-0.3-3.3-0.4-4.9c-0.1-0.7-0.1-1.6-0.7-1.8c-0.9-0.2-1.2,0.8-1.6,1.3
			c-0.9,1.3-0.9,2.8-1.3,4.3c-0.1,0.5-0.3,1.1-0.9,1.1c-0.8,0-0.5-0.7-0.5-1.2c-0.2-1.5-0.4-3-0.6-4.4c-0.3-2-1.3-1.7-2.4-0.7
			c-1.5,1.6-2.4,3.7-2.4,5.9c0,0.6,0.4,1.5-0.8,1.5s-0.8-0.8-0.9-1.4c-0.4-2.4-0.5-4.8-0.5-7.2c0-0.5,0-1.1,0.7-1.1s0.8,0.6,0.9,1.1
			C49.6,466.7,49.5,467.5,49.5,468.2z"/>
		<path class="st3" d="M-7,426.3c0.9,0,1.7,0.8,1.7,1.7c0,0,0,0.1,0,0.1c0.2,3.1,0.4,6.3,0.5,9.4c0,0.6,0.1,1.6-0.8,1.6
			s-0.6-0.9-0.6-1.4c-0.5-4.7-0.5-4.6-5.3-4.8c-2.1-0.1-3.3,0.3-3,2.6c0,0.4-0.1,0.9-0.2,1.3c-0.1,0.6-0.3,1.1-0.9,1
			c-0.6-0.1-0.5-0.8-0.5-1.3c0.3-2.8,0.3-5.7,0.2-8.5c0-0.6-0.3-1.4,0.6-1.5c0.8-0.1,0.9,0.8,1,1.4c0.2,1.2-0.6,2.8,0.5,3.5
			c0.9,0.5,2.3,0.1,3.5,0.1c0.4,0,0.7,0,1.1,0c1.6,0.2,2.5-0.3,2.2-2.1C-7.1,428.4-7.1,427.4-7,426.3z"/>
		<path class="st4" d="M-0.2,473c-0.4,1.8,0.3,3.5,0.3,5.2c0,0.5-0.1,0.9-0.6,1s-0.8-0.4-0.8-0.9c-0.2-3.1-1-6.2-0.2-9.3
			c0.7-2.6,2.7-4.2,4.9-4.1c2.5,0.4,4.4,2.3,4.7,4.8c0.2,1.7-0.9,3.3-2.5,3.7C3.6,474,1.6,473.9-0.2,473z"/>
		<path class="st5" d="M-8,450.1c-0.2,2.3-0.4,4.5,1.4,4.8s1.8-2.1,2.3-3.5c0.4-1.1,0.7-2.3,1.1-3.4c0.1-0.3,0.4-0.7,0.9-0.5
			c0.4,0.2,0.7,0.4,0.5,0.8c-1,2-0.9,4.4-2.1,6.4s-2.7,2.3-4.3,0.9c-0.7-0.6-0.9-0.6-1.5,0c-1.2,1-2.3,0.8-3.2-0.5
			c-1.4-1.8-2.1-4-2.2-6.2c0-0.6-0.2-1.6,0.8-1.5s0.5,0.9,0.5,1.4c0.2,1.9,0.8,3.7,1.8,5.2c0.8,1.3,1.3,0.9,1.8-0.2
			c0.4-1.2,0.6-2.5,0.5-3.8c0-0.9-0.1-2.2,0.9-2.2c1.6,0,0.5,1.5,0.8,2.3C-8,450.4-8,450.6-8,450.1z"/>
		<path class="st3" d="M28.9,466.6c1.8-1.1,3.5-1.6,5-0.2c1.2,1.3,1.6,3.2,0.8,4.8c-0.7,1.9-2.3,2.6-4.2,2.8c-0.9,0-1.9-0.5-2.8,0.1
			c-0.6,0.4-0.7-0.2-0.9-0.6c-0.2-0.7-0.3-1.5-0.1-2.2c0.7-3.1,0.8-6.4,0.5-9.6c0-0.6-0.3-1.4,0.5-1.5c1-0.2,0.9,0.8,1,1.4
			C28.6,463.1,28.7,464.7,28.9,466.6z"/>
		<path class="st4" d="M-14.9,468.5c-1.6-2.8-2.9-3.3-5.4-2.3c-0.5,0.2-1,0.6-1.3-0.1s0.3-0.9,0.7-1.2c2-1.1,4.6-0.7,6.2,1
			c1.2,1.6,2,3.5,2.2,5.5c0.2,1.4-3.3,3.7-4.9,3.6c-1.8,0-3.3-1.4-3.4-3.3c0-1.8,2.3-3.7,4.5-3.6C-15.9,468.2-15.4,468.3-14.9,468.5
			z"/>
		<path class="st6" d="M43.4,464.9c0.9-0.1,1.7,0.2,2.4,0.7c1.6,1.3,1.4,3-0.5,3.9c-1.1,0.5-2.3,0.6-3.5,0.4c-2-0.2-1.9,0.9-1.5,2.1
			c0.4,1.2,1.5,2,2.8,2c1,0.3,2-0.3,2.3-1.3c0,0,0,0,0,0c0.2-0.6,0.5-1.2,1.3-0.7s0.2,1.1-0.1,1.6c-0.7,1.6-2.1,2-3.7,1.8
			c-2.6-0.2-4.5-2.5-4.3-5c0,0,0-0.1,0-0.1C38.7,467.1,40.7,464.9,43.4,464.9z"/>
		<path class="st7" d="M33.9,450.7c-1.4-3-2.7-3.5-5.4-2.4c-0.5,0.2-1,0.6-1.3-0.1c-0.3-0.7,0.3-1,0.7-1.2c1.5-0.8,3.3-0.8,4.7,0.1
			c3.3,1.6,4.2,7,1.6,9c-1.4,1.3-3.6,1.4-5.1,0.2c-1.1-0.7-1.5-2.2-0.9-3.4c0.7-1.8,2.6-2.8,4.5-2.5
			C33.2,450.5,33.6,450.6,33.9,450.7z"/>
		<path class="st8" d="M20.1,451.1c1-1.3,1.5-3.3,3.4-2.8s2,2.4,2.3,4c0.2,0.9,0.3,1.9,0.4,2.9c0.1,0.6,0.2,1.5-0.8,1.5
			c-0.8,0-0.7-0.8-0.7-1.4c0-1.6-0.2-3.3-0.8-4.8c-0.5-1.1-1.1-1.2-1.7-0.1c-0.9,1.6-1.5,3.4-1.8,5.3c-0.1,0.5,0,1.2-0.8,1.1
			c-0.6,0-1-0.4-1-1c0-0.1,0-0.2,0-0.2c0.2-3.2-0.3-6.4-0.4-9.6c0-0.6,0-1.3,0.8-1.4c1-0.1,0.7,0.8,0.7,1.3
			C19.9,447.6,20,449.2,20.1,451.1z"/>
		<path class="st9" d="M-0.7,452.8c0-4.4,3.3-7,6.5-5.4c1,0.3,1.7,1.3,1.7,2.4c-0.1,1.3-1,1.8-2.1,2c-1,0.3-2.1,0.4-3.1,0.3
			c-1.8-0.2-1.8,0.7-1.3,2c0.4,1.1,1.5,1.9,2.8,1.9c1,0.3,2.1-0.4,2.3-1.4c0,0,0-0.1,0-0.1c0.1-0.5,0.5-1,1.1-0.6s0.3,0.9,0.1,1.4
			c-0.7,1.7-2.1,2.2-3.8,2c-2.1-0.1-3.8-1.6-4.2-3.6C-0.7,453.4-0.7,453.1-0.7,452.8z"/>
		<path class="st4" d="M53,447c1.5,0,2.7,1.1,2.9,2.6c0.1,1.8-1.4,2.2-3,2.4c-0.7,0.2-1.5,0.2-2.2,0.2c-2-0.2-1.7,1-1.3,2.1
			c0.4,1.1,1.4,1.8,2.6,1.8c1.1,0.3,2.2-0.3,2.5-1.4c0,0,0,0,0,0c0.1-0.4,0.3-1.2,1.1-0.7s0.4,1,0.1,1.5c-0.9,1.8-2.4,2.1-4.1,1.8
			c-2.5-0.4-4.2-2.7-3.9-5.2C47.9,448.9,49.9,446.9,53,447z"/>
		<path class="st10" d="M25.5,469.2c0,3.1-2.1,5.6-4.9,5.5c-2.8-0.1-5-2.4-5-5.2c0.2-2.7,2.3-4.8,5-5c2.5-0.2,4.7,1.7,4.9,4.2
			C25.5,468.9,25.5,469.1,25.5,469.2z"/>
		<path class="st11" d="M33,433.9c-0.1-2.7,2-5,4.6-5.1c0.1,0,0.2,0,0.4,0c2.5-0.1,4.6,1.8,4.7,4.3c0,0.1,0,0.2,0,0.3
			c0.1,3.2-1.9,5.4-4.9,5.5c-2.6,0.1-4.8-2-4.8-4.6C33,434.2,33,434,33,433.9z"/>
		<path class="st2" d="M1.2,428.8c2.5-0.2,4.6,1.7,4.8,4.2c0,0.2,0,0.4,0,0.6c0,3.1-2,5.3-4.9,5.3c-2.7,0.1-4.9-2.1-5-4.8
			c0,0,0-0.1,0-0.1C-3.9,431.2-1.7,428.9,1.2,428.8C1.2,428.8,1.2,428.8,1.2,428.8z"/>
		<path class="st5" d="M45.3,432c0.6-0.6,1.2-1.1,1.9-1.6c1.6-0.9,3-0.5,3.7,1.2c0.9,2.2,1.5,4.6,1.6,7c0,0.5,0.2,1.2-0.6,1.2
			c-0.8,0-0.7-0.5-0.8-1.1c-0.2-2.1-0.6-4.1-1.3-6.1c-0.6-1.6-1.5-1.5-2.5-0.4c-1.2,1.3-1.2,3-1.4,4.6c0,0.8,0.4,2.1-0.9,2.1
			c-1.3,0-0.9-1.4-1-2.2c-0.1-2-0.2-4-0.2-6.1c0-0.5-0.4-1.4,0.4-1.5s0.9,0.8,0.9,1.5C45.3,431,45.3,431.5,45.3,432z"/>
		<path class="st9" d="M20.8,438.4c-1.3,0-2.5-0.4-3.4-1.2c-0.5-0.3-1.1-0.8-0.6-1.5s1,0,1.4,0.4c1.2,1,2.8,1.3,4.2,0.8
			c0.5-0.1,1.2-0.5,1.1-1.2s-0.8-0.6-1.2-0.8c-1.2-0.3-2.5,0-3.8-0.6c-1-0.5-2.1-0.9-2.1-2.3c0-1.4,1.2-1.6,2.1-2.1
			c1.7-0.7,3.4-0.4,5,0.1c0.4,0.1,1,0.2,0.9,0.8s-0.6,0.6-1.3,0.4c-1.4-0.4-2.9-0.9-4.3,0c-0.4,0.2-1,0.3-0.9,0.8s0.6,0.7,1,0.8
			c0.8,0.2,1.6,0.3,2.4,0.5c1.5,0.3,3.6-0.1,3.7,2.3C25,437.2,23.2,438.4,20.8,438.4z"/>
		<path class="st12" d="M13.8,432.9c0.3-0.6-0.9-1.9,0.5-2c1.1-0.1,0.9,1.4,1.1,2.2c0.2,1.2,0,2.4-0.5,3.5c-0.6,1.6-2.3,2.5-4,2
			c-0.4-0.1-0.7-0.3-1-0.6c-2.4-1.5-3.5-4.5-2.6-7.3c0.2-0.6,0-1.6,1-1.3c0.8,0.2,0.5,1,0.4,1.5c-0.4,1.8-0.4,3.6,1,5
			c0.7,0.7,1.4,1.8,2.6,1.3c1.3-0.5,1.4-1.6,1.5-2.8C13.8,434,13.8,433.5,13.8,432.9z"/>
		<path class="st13" d="M42.7,454.9c0.8-2.2,1.4-3.9,2.1-5.6c0.2-0.6,0.4-1.5,1.3-1.1c0.9,0.3,0.3,1,0.1,1.5c-0.7,1.7-1.3,3.5-2,5.2
			s-1.8,1.9-3,0.3c-1.5-2.1-2.7-4.5-3.6-6.9c-0.2-0.5-0.2-1,0.3-1.2c0.7-0.3,0.9,0.3,1.1,0.8C40,450.4,41.2,452.7,42.7,454.9z"/>
		<path class="st14" d="M31.8,438.2c-0.2,0.7-0.9,1-1.5,0.8c-0.1,0-0.2-0.1-0.3-0.2c-1.8-0.8-2.2-2.4-2.7-4.1
			c-0.4-1.4,0.5-3.2-1.1-4.3c1.1-0.9,1.1-2.4,2-3.3c0.2-0.2,0.7,0.1,0.8,0.5c0.1,0.3,0.1,0.6,0,0.9c-0.8,1.6,1.2,1,1.3,1.7
			c0.2,1.5-1.5,0.4-1.6,1.1c-0.2,0.9-0.2,1.8,0,2.7c0.4,1.5,0.1,3.7,2.7,3.5C31.6,437.5,31.8,437.8,31.8,438.2z"/>
		<path class="st15" d="M10.6,468.2c1.1-1.1,1.4-2.2,2.4-2.9c0.5-0.3,1-0.6,1.4-0.2c0.4,0.4,0,0.8-0.4,1.2c-1.8,1.9-3.2,4-3.2,6.8
			c0,0.6-0.1,1.1-0.8,1.1s-0.7-0.6-0.7-1.1c0-2-0.1-4-0.1-6c0-0.6-0.2-1.6,0.7-1.6s0.6,1,0.6,1.5C10.6,467.3,10.6,467.6,10.6,468.2z
			"/>
		<path class="st16" d="M36.2,467.7c0-1.7,0-3.5,0-5.2c0-0.5-0.2-1.1,0.6-1.2c0.6,0,0.8,0.4,0.8,0.9c0,3.7,0,7.4,0,11
			c0,0.5-0.3,1.1-0.9,1s-0.6-0.7-0.5-1.2C36.1,471.2,36.1,469.4,36.2,467.7L36.2,467.7z"/>
		<path class="st17" d="M57,438.1c-0.2,1.4-1,2.7-2.2,3.6c-0.2,0.3-0.6,0.3-0.9,0.1c0,0-0.1-0.1-0.1-0.1c-0.3-0.2-0.3-0.5-0.1-0.8
			c0-0.1,0.1-0.1,0.1-0.1c1.1-0.8,1.7-2.1,1.7-3.5c0-0.3,0.2-0.6,0.5-0.6c0.1,0,0.2,0,0.3,0C57.1,436.9,57,437.6,57,438.1z"/>
		<path class="st18" d="M-88.4,456c1.9,3,4.4,5.4,6.6,8c5.5,6.4,8.6,14.7,8.5,23.2c0.1,12-3.4,23.8-10.1,33.7
			c-3.5,5.8-9.5,9.6-16.2,10.4c-16.2,2.2-32.7,2.3-48.9,0.3c-8.6-1-14.4-5.4-18.5-12.5c-7.5-12.9-11-26.5-7.5-41.4
			c1.3-5,3.7-9.7,7.1-13.6c2.1-2.6,4.6-4.9,6.4-8.4c0.5,6,0.9,11.6,2.7,16.8c1.4,4.1-0.6,7.6-0.7,11.4c-0.2,2.7-0.1,5.4,0.1,8.1
			c0.2,1.4,0.7,1.9,2.2,1.6c7.2-1.3,14.3-2.9,21-5.7c0.7-0.3,1.4-0.3,2.2-0.2c7.6,1.6,15.5,1.3,22.9-0.8c0.7-0.2,1.5-0.2,2.2,0.1
			c5.4,1.7,11,3,16.6,3.9c1.7,0.3,2.5-0.1,2.5-2c0.1-4-0.5-7.9-1.7-11.7c-0.4-0.6-0.4-1.4-0.2-2.1c2.4-5.9,2.8-12.1,2.8-18.3
			L-88.4,456z"/>
		<path class="st19" d="M-134.5,373.4c2.7,2.1,5.6,1.6,8.6,1c1.6-0.4,0.9-1.6,0.8-2.9c15,1,28.4,5,36.6,18.7
			c4.1,6.8,4.5,14.5,4.3,22.2c-0.2,8.9-2.6,17.3-4.9,25.8c-0.3,1-0.8,1.7-1.9,1.9s-2.5,0.3-3.8,0.5c-0.8-0.7-1.6-0.1-2.3,0
			c-6.7,0.8-13.4,1-20.1,1.1c-8.8,0.2-17.6-0.1-26.4-0.7c-5.4-0.4-9.1-4.5-9.1-10.1c1.1-1.3,2.4-0.5,3.5-0.2
			c5.7,1.4,11.7,0.9,17.1-1.4c1.6-0.7,2.8-2,4.5-2.4c2.4,1.4,4.6,3.1,6.7,5c0.5,0.7,0.8,1.6,1.3,2.3c2.3,3.5,6.8,4.8,10.6,3.3
			c1.5-0.7,2.6-2.1,2.9-3.7c0.2-0.8,0.2-1.7,0.8-2.3c5,0,8.4-2.9,10.9-6.8c3-4.7,3.6-10,3.1-15.4c-0.4-4.3-1.2-8.4-3.9-12
			c-3.1-4.1-7.9-6.6-13.1-6.8c-5-0.4-9.7,0-14.2,2.3c-0.5,0.3-1.1,0.4-1.7,0.4c-1-0.3-1.5-1.1-2.2-1.9c-1.7-2.2-4-4-6.6-5
			c4,1.9,6.4,5.3,8.7,8.8c1.9,2.8,4.1,3.3,6.7,1.2c4.3-3.4,9-2.3,10.2,4.6c0.5,3.2,0,6.3-0.3,9.4c-0.3,3.9-0.3,7.8-0.4,11.7
			c0,1.2,0.1,2.4-1.1,3.3c-2.3,0.7-4.8,0.7-7.2-0.1c-1.8-1.9-0.3-4-0.2-6s0.9-4.3-0.7-6.2c-0.8-0.8-1.5-2.1-2.9-1.6
			c-1.4,0.5-1.7,1.8-2,3c-0.5,3.4-1.9,6.7-4,9.4c-0.8,1-1.5,2.1-3,2.1c-0.4-0.3-0.9-0.4-1.4-0.3c-9,2.2-17.3,0.3-24.7-5.2
			c-4.8-3.5-6.9-8.6-7.5-14.3c-1-8.3,2.3-14.4,9.3-18.8c1.1-0.7,2.4-0.8,2.8-2.7c0.3-1.4,2-2.5,3.2-3.6
			C-143.5,377.8-139.1,375.3-134.5,373.4z"/>
		<path class="st20" d="M-103,457.7c-0.1-0.3-0.3-0.7-0.4-1c-0.1-0.6-0.6-1-1.2-0.9c-0.1,0-0.2,0.1-0.3,0.1
			c-0.7,0.3-0.7,0.8-0.5,1.5c0.8,2.9,1,5.9,0.6,8.9c-0.6,0.8-1.6,0.7-2.4,0.9c-2.4,0.6-3.8,2.2-3.9,4.3c0,1.9,1.4,3.3,3.9,4
			c0.7,0.2,1.5,0.1,2.1,0.7c0.4,1.8,1.6,3.3,3.1,4.3c-3,2.4-6.6,4-10.4,4.7c-2-0.1-1.3-2.1-2-3.1c-0.6,0.9-0.3,2.7-1.8,2.8
			c-1.8,0-1-2-2-2.9c-0.7,0.3-0.5,1-0.6,1.5c-0.2,0.7-0.4,1.5-1.3,1.6c-0.9,0.1-1.2-0.7-1.4-1.4c-0.2-0.5-0.1-1.2-0.8-1.7
			c-0.7,1-0.4,2.6-2,3c-1.3,0.2-2.5,0-3.8-0.4c-2.2-0.5-4.3-1.3-6.5-1.8c-0.5-0.1-1-0.4-1.2-0.9c0-0.4,0.2-0.7,0.5-0.9
			c1.8-1,3.1-2.6,3.8-4.5c0.8-0.9,1.9-0.8,2.9-1c2.9-0.6,4.6-2.4,4.1-4.6c-0.7-2.7-3.4-4.3-6.1-3.6c0,0-0.1,0-0.1,0
			c-1,0.3-1.9,1-3,0.5c-2.2-2.2-2-5.2-2.7-7.9c0-1-0.2-1.9-0.7-2.8c0.1,3.6,0.8,7.1,2.1,10.5c0.9,2.2,1.6,4.5,2.1,6.9
			c0.5,2.9-0.3,4.7-2.5,5.6c-2.5,1.1-5.4,0.3-6.9-2c-0.2-1.4,0.7-1.9,1.7-2.4c0.6-0.3,1.3-0.3,1.9-0.5s1.2-0.7,1-1.5
			c-0.2-0.8-1-0.6-1.6-0.6c-1.3,0.1-2,1.6-3.4,1.2c-1.6-1.1-2.4-2.9-3.1-4.6c-2-4.5-3.6-9.2-4.8-14c-0.4-1.7,0-2.4,1.8-2.5
			c3.4-0.1,6.7-0.1,10.1,0.3c2,0.2,4,0.3,6,0.3c4.8,0,9.6,0,13.3,0c-5.5-0.1-12,0.1-18.5-0.3c0.7-0.9,1.5-0.6,2.3-0.5
			c9.3,0.1,18.6,0.1,27.8-0.4c5.2-0.2,10.3-0.7,15.4-1.5c0.9-0.1,1.8-0.5,1.8,1c0.3,7.2,0.2,14.4-2.2,21.3c-0.7,0.4-0.7,1.2-1.1,1.8
			c-0.8,1-1.5,1.1-2.1-0.1c0.1-3-0.3-3.3-4.1-3c-0.5,0-0.9-0.2-1.3-0.6c-0.5-0.9-0.7-2-0.5-3c0.3-3.2,0.2-6.5-0.3-9.7
			C-102.4,458.5-102.5,458-103,457.7z"/>
		<path class="st21" d="M-152.5,430.7c1,2.5,2,5,3.3,7.4c1.1,2.3,3.4,1.8,5.1,1.9c6.6,0.6,13.1,1.1,19.7,1.1c5.4,0,10.9,0,16.3-0.2
			c4,0,7.9-0.3,11.8-1.1c1-0.1,2.1-0.2,3.1-0.2l-1.6,0.9c-2.9,0.9-6,0.9-9,1.1c-4.2,0.3-8.4,0.4-12.7,0.6c-6-0.1-12-0.1-17.9,0
			c-8.2,0-16.3-0.7-24.4-2c-1-0.2-1.9-0.4-2.2-1.6c-1.7-6.4-4.5-12.4-6.9-18.5c-7.3-18.4,2-34.6,16.4-42.5c4.7-2.6,9.9-4.4,15.2-5.1
			c0.8-0.1,1.7-0.5,1.8,0.9c-0.1,1-0.9,1.4-1.6,1.7c-5.7,2.2-10.8,5.9-14.7,10.7c0.9,0.4,1.6-1,2.6-0.1c-1.6,1-3.3,1.4-4.8,2.3
			c-9.5,5.7-11.1,15.3-7.2,24.7c3.2,7.8,10,10.9,17.7,12.6c4.2,1,8.7,0.8,12.8-0.7c1.7-0.6-0.2,1,0.6,1.1c0.1,1.6-1.3,2.1-2.3,2.6
			c-5,2.8-10.4,3.2-15.9,2.3c-7.6-1.3-13.8-5-17.4-12.1c1.2,3.6,3.7,6.1,6.7,8.3c1.2,0.8,2.6,1.6,3.9,2.2
			C-153.5,429.4-152.7,429.8-152.5,430.7z"/>
		<path class="st20" d="M-112,315.4c-0.8-2.3-2.8-3.6-4.5-5c-0.9-0.5-0.8-1.4-0.7-2.2c0.5-2,0.2-4.2-0.7-6c-0.3-0.7-0.6-1.4,0.1-2
			c5.3,0.6,10.2,3.3,13.7,7.4c4.5,5.2,4.8,12.8,0.7,18.3c-3.1,4.4-7.3,7.5-11.6,10.5c-7.7,5.6-12.9,12.8-14.4,22.4
			c-0.6,4-0.1,8.1,1.5,11.9c0.8,1.9,0,2.2-1.6,2.1c-1-0.1-2.1,0.1-2.9-0.8c0.2-1,0.1-2.1-0.4-3c-2.9-8-2.1-16.9,2.2-24.2
			c3.8-6.9,9.4-12.2,15.1-17.3c3.2-2.9,4.8-6.2,4.1-10.5C-111.4,316.5-111.6,315.9-112,315.4z"/>
		<path class="st22" d="M-135.9,481.8l9.7,2.4c1.6,0.4,2.7,0.2,2.5-1.8c-0.1-0.9,0.1-1.8,1.2-1.8s1.1,1,1.5,1.7s-0.6,2.4,0.9,2.3
			c1-0.1,0.5-1.5,0.5-2.4s0.3-1.5,1.2-1.6c0.9-0.1,1.1,0.7,1.3,1.3c0.1,0.3,0.1,0.6,0.2,0.9c0.2,0.6-0.4,1.9,0.6,1.8s0.7-1.3,0.8-2
			c0-1,0.1-2,1.3-1.9c1.2,0.1,0.9,1.1,1,1.9c0.1,1-0.3,2.1,0.8,2.8c-2.8,1-5.8,1.5-8.8,1.4c-4.1,0.2-8.3-0.1-12.3-0.9
			c-1-0.2-2.1-0.1-3.1,0.4c-5.9,2.5-12.1,3.8-18.3,5.2c-1.6,0.3-2.1,0-2.1-1.7c-0.2-4,0.2-7.9,1.2-11.8c0.4-1.2,0.4-2.5,0-3.7
			c-2-7-3.1-14.2-3.2-21.5c0-0.7-0.3-1.7,1-1.5c7.2,1.3,14.6,1.6,21.9,1.9c0.1,0,0.3,0.1,0.4,0.2l-1.7,0.2v0.3h20.7
			c-0.8,0.4-1.8,0.6-2.7,0.4c-9.7,0-19.3,0-29,0c-1.6,0-2-0.1-1.4,2c1.3,4.1,2.5,8.3,4.1,12.3c0.8,2.2,2,4.2,3.5,6
			c1,0,1.8,0.8,1.8,1.8c-0.7,0.4-1.5,0.7-1.8,1.5c-1.4,0.6-1.8-0.7-2.3-1.4c-2.3-3.3-4-6.8-5.3-10.6c-1-2.7-1.7-5.4-2.5-8.2
			c-0.2-0.8-0.5-1.7-0.9-2.4c0.7,5.1,2.7,9.4,3.9,14c0.6,3.2,1.1,6.4,3.8,8.8c0.8,0.7,1.8,1.3,2.9,1.6
			C-140.6,480.9-138.1,480.8-135.9,481.8z"/>
		<path class="st23" d="M-83.1,398.7c-3-13.3-11.8-21-24.4-26c1.7,0,3.4,0.2,5,0.6c3.8,0.6,6.9-0.8,6.8-5.1c0-4,2.5-5.3,6.3-3.9
			c3.3,1.2,5.9,3.6,8.4,5.9c4.2,4.1,8.8,8,13.5,11.4c0.7,1.1-0.2,1.7-0.7,2.3c-1.2,1.3-2.5,2.6-3.9,3.8c-0.5,0.4-1.2,0.6-1.8,0.5
			c-1.7-2.5-3.6-4.8-5.7-6.9c-1.1-1.1-2.3-1.9-3.8-2.4c-1.2-0.5-2.6-0.1-3.4,0.9c-0.8,1.2-0.3,2.3,0.4,3.3c1.7,1.7,3.1,3.6,4.3,5.7
			c0.7,1.2,1.2,2.6,1.5,4C-80,396.1-80.9,397.9-83.1,398.7z"/>
		<path class="st24" d="M-159.2,442.1c8.6,1.4,17.2,2.1,25.9,2.1c12.4,0.4,24.8,0,37.2-1.2c1.1,1.3,0.9,2.7,0.2,4.1
			c-1.6,1.7-3.8,1.2-5.7,1.3c-9,0.7-18.1,1.1-27.1,1c-4.8-0.1-9.6-0.8-13.1-0.5c5.8-0.2,12.8,0.8,19.9,0.5
			c6.9-0.3,13.8-0.4,20.6-0.9c1.6-0.1,3.2-0.7,4.9-0.2c0.5,0.3,0.8,0.9,0.7,1.4c-3.8,0.6-7.7,1-11.6,1.1
			c-15.1,0.9-30.2,0.6-45.2-0.8c-2.4-0.1-4.8-0.5-7.1-1.2c-0.7-1.3-0.6-2.8,0.4-3.9c1.9-1.1,3.8,0,5.7,0.2c2.4,0.3,4.8,0.5,7.1,0.7
			c12,0.9,24.1,0.4,36.2,0.5c0.9,0,1.8-0.2,2.7-0.4c-1.3,0.3-2.6,0.4-3.9,0.4c-9,0-18,0.2-27-0.1c-6.3-0.1-12.7-0.6-18.9-1.7
			c-0.7-0.1-1.3-0.4-1.8-0.8C-159.7,443.3-159.7,442.6-159.2,442.1C-159.3,442.1-159.3,442.1-159.2,442.1z"/>
		<path class="st25" d="M-112,315.4c1.8,0.8,1.8,2.6,1.7,4c-0.2,3.4-1.9,6.5-4.5,8.7c-6.6,5.7-12.9,11.8-16.5,20
			c-3.2,7.1-3.3,15.2-0.1,22.4c0.4,1.1,0.5,1.7-0.9,1.6c-4-6.6-4.8-14.6-2.3-21.8c2.6-7.8,7.9-13.9,13.7-19.5c1.7-1.6,3.5-3.3,5.1-5
			C-113.1,322.9-111.4,319.6-112,315.4z"/>
		<path class="st26" d="M-117.8,300.2c0,0.5,0.1,1,0.4,1.5c1.3,2,1.7,4.5,1,6.8c-0.3,0.6-0.3,1.3-0.1,2c-3.7-1.5-7-0.1-10.3,1.5
			c-5.1-1.8-6.1-6.8-2-10.2c0.2-0.2,0.4-0.4,0.6-0.6C-124.9,299.6-121.2,299.3-117.8,300.2z"/>
		<path class="st27" d="M-106.7,485.7c2.3-1.2,4.5-2.6,6.5-4.2c0.3-0.3,0.6-0.4,1-0.5c2.4,0,4.7-0.9,6.3-2.7
			c1.3,3.1,1.3,6.2,1.7,9.2c0.2,1.4-0.8,1.5-1.7,1.3c-1.9-0.3-3.8-0.7-5.7-1.1C-101.3,487.1-103.7,486.4-106.7,485.7z"/>
		<path class="st28" d="M-96.2,448.8c-6.1,0.3-12.2,0.8-18.4,1.1c-10.1,0.4-20.2,0-30.3-0.4c-0.7,0-1.8,0-1.7-1
			c0.1-0.9,1.1-0.6,1.7-0.5c15.5,1,31,0.9,46.5-0.6c0.7,0,1.5-0.1,2.2-0.5c1.7-1.1,3.4-1.6,5.3-0.5l1.5,0.9
			C-91.4,449.1-93.8,449.1-96.2,448.8z"/>
		<path class="st29" d="M-159.4,443.2c7.5,1.7,15.1,2,22.8,2.2c9.8,0.4,19.6,0.3,29.4-0.3c0.7-0.1,1.5-0.1,2.3,0
			c0.6,0,1.6-0.4,1.5,0.7c0,0.8-0.9,0.6-1.5,0.6c-7.3,0.7-14.7,0.5-22,0.6c-10.8,0.1-21.6-0.6-32.2-2c-0.8,0.2-1.6,0.2-1.9-0.9
			c0.2-0.4,0.5-0.8,1-0.9C-160,443.1-159.7,443-159.4,443.2C-159.5,443.2-159.4,443.2-159.4,443.2z"/>
		<path class="st30" d="M-73.8,388.3c0.3-0.5,0.9-0.8,1.5-0.8c0.9-0.6,1.5,0,2.2,0.4c4.5,2.6,5.4,2.4,9.3-1.2
			c0.3-0.3,0.7-0.6,1.1-0.6c2.4,2.3,2.4,4.5,0,6.6c-2.3,2.1-5.6,2.5-8.3,1.1C-70.4,392.5-72.4,390.6-73.8,388.3z"/>
		<path class="st31" d="M-59.7,386.1c-2.8,4.8-6.3,5.6-10.8,2.5c-0.6-0.4-1-1.1-1.8-1.1c1.4-2.1,4-3.2,4.9-5.7
			C-64.8,383.1-61.9,384-59.7,386.1z"/>
		<path class="st32" d="M-128.2,301.1c-0.8,1.1-1.6,2.3-2.1,3.6c-0.6,2.1-0.3,4.1,1.7,5.6c0.6,0.5,1.6,0.7,1.8,1.6
			c-1.9,1.2-3.8,1.6-5.7,0c-1.6-1.6-2-4.1-1-6.2C-132.5,303.5-130.6,301.8-128.2,301.1z"/>
		<path class="st33" d="M-105.2,476.2c-3.4,0.6-6.5-1.4-6.8-4.2c-0.3-3.1,2.1-5.5,5.6-5.7l1.6-0.1c0.1,1.4,0.6,2.8-1.9,2.4
			c-0.8-0.1-3.3,0-1.8,2.4c0.1,0.2,0.1,0.4,0,0.6c-1.5,2.2,0.7,2.3,1.6,2.3C-104.8,473.8-105.2,475.1-105.2,476.2z"/>
		<path class="st34" d="M-103,457.7c1.6-1.3,1.3,0.5,1.4,1c0.8,4.3,0.4,8.6,0.4,12.9c0.4,0.6,0.6,1.3,0.6,2
			c-0.1,1.6,1.1,2.9,2.7,3.1c0.8,0.2,1.9-0.1,1.8,1.3c-1.6,1.4-3.3,1.1-5,0.4s-1.9-2.2-1.8-3.7c0.1-2.8,0.2-5.5,0.4-8.3
			C-102.5,463.5-102.6,460.6-103,457.7z"/>
		<path class="st35" d="M-91,446.4c-1.8,0.1-3.4,0.8-5.3,0.5c0-1.3,0.1-2.6,0.1-3.9l7.4-1.4C-88.1,445.2-88.1,445.4-91,446.4z"/>
		<path class="st36" d="M-96.2,478.1c-0.4-0.5-1-0.7-1.6-0.6c-1.3,0.1-2.6,0.3-2.7-1.7c0-0.5-0.7-0.5-1.1-0.6
			c-0.6-0.2-1-0.9-0.5-1.1c1.2-0.6,0.5-1.7,0.8-2.5l1.5,0.1c0.7,1.6,2.2,2.8,4,3c0.3,1.1,0.8,1.2,1.4,0.3c0.4-0.6,0.6-1.4,1.4-1.5
			C-93.6,475.4-94.3,477.1-96.2,478.1z"/>
		<path class="st37" d="M-83.1,398.7c1.5-1.6,2.5-3.6,2.7-5.8c1.1,4,0.5,7.7-1.7,11.7C-82.5,402.3-82.8,400.5-83.1,398.7z"/>
		<path class="st38" d="M-96.2,448.8l6.7-1.4c0.3,0.1,0.8-0.3,1,0.2c0.2,0.7-0.4,0.9-0.9,1c-2.1,0.6-4.2,1-6.4,1.1
			C-96.1,449.4-96.2,449.1-96.2,448.8z"/>
		<path class="st39" d="M-161.1,444.2l1.9,0.9c-0.5,1.2,0.2,2.5-0.5,3.7C-161.8,448.2-162.3,446.7-161.1,444.2z"/>
		<path class="st19" d="M-134.5,442.2c4.6-0.6,9.3-0.1,14-0.3c1.3,0,2.7-0.3,4,0.3L-134.5,442.2z"/>
		<path class="st40" d="M-159.4,443.2h-0.7c-0.4-0.6-1.9-0.3-1.4-1.3c0.5-1,1.5,0.3,2.3,0.1C-159.3,442.5-159.4,442.9-159.4,443.2z"
			/>
		<path class="st41" d="M3.1,472.6c-1-0.9-3.4,0.4-3.4-2.3c0-2.2,1.6-4,3.4-4c1.9,0.3,3.3,1.9,3.5,3.8
			C6.5,472.2,4.8,472.3,3.1,472.6z"/>
		<path class="st42" d="M28.6,471.2c0.1-2.4,1.4-4.3,3-4.2c1.8,0,1.9,1.5,1.9,2.7c0.1,2-1.3,3-3.6,3
			C28.4,472.8,28.3,472.1,28.6,471.2z"/>
		<path class="st43" d="M-17,473.7c-1.4-0.1-2.5-0.6-2.4-1.8c0.1-1.3,1.2-2.4,2.6-2.4c1.2,0,2.2,0.8,2.5,1.9
			C-14,472.1-16.2,473.7-17,473.7z"/>
		<path class="st44" d="M40.5,468.5c0.3-1.6,1.8-2.6,3.4-2.2c0.1,0,0.2,0.1,0.3,0.1c0.6,0,1.1,0.6,1.1,1.2c0,0.7-0.6,0.9-1.1,0.9
			C43,468.5,41.9,468.5,40.5,468.5z"/>
		<path class="st45" d="M34.6,453.5c-0.4,1.3-1.5,2.2-2.8,2.4c-1,0.3-2-0.3-2.3-1.3c0-0.1,0-0.2,0-0.3c-0.1-1.6,1.1-2.4,2.5-2.6
			C33.3,451.6,33.9,452.7,34.6,453.5z"/>
		<path class="st46" d="M1.2,450.6c1-2.2,2.5-2.9,4.1-2c0.4,0.2,0.8,0.5,0.8,1s-0.4,0.7-0.9,0.9C3.8,450.7,2.5,450.8,1.2,450.6z"/>
		<path class="st47" d="M51.3,451c-0.6-0.4-1.7,0.3-1.6-0.6c0.2-1.2,1.3-2.1,2.6-2c0.9,0,2.1,0.1,2,1.3
			C54,451.4,52.1,450.2,51.3,451z"/>
		<path class="st48" d="M24.1,469.4c0,2.4-1.2,3.7-3.2,3.8c-2.4,0-3.7-1.2-3.7-3.4c-0.1-2,1.4-3.7,3.4-3.9c0,0,0.1,0,0.1,0
			C22.8,465.8,24.1,467.1,24.1,469.4z"/>
		<path class="st49" d="M41.3,433.6c0,2.4-1.2,3.8-3.1,3.9c-2.3,0-3.7-1.3-3.8-3.4c-0.1-2,1.4-3.8,3.4-3.9c0.1,0,0.2,0,0.3,0
			C40.1,430.2,41.2,431.4,41.3,433.6z"/>
		<path class="st50" d="M4.6,433.6c0,2.2-1.4,3.8-3.2,3.8c-1.9,0.2-3.6-1.2-3.8-3.1c0-0.1,0-0.2,0-0.3c0-2.1,1.6-3.8,3.7-3.9
			c0,0,0.1,0,0.1,0c1.8,0,3.3,1.4,3.3,3.2C4.6,433.5,4.6,433.6,4.6,433.6z"/>
		<path class="st51" d="M-97.9,523.6c1.9,0.5,3.6,0.9,5.3,1.3c0.5,0.1,1.1,0.3,0.8,1.1c-0.2,0.5-0.7,0.5-1.1,0.3s-0.9-0.2-1.3-0.4
			c-2.8-0.9-5.1-1.1-7.9,0.8c-5.2,3.5-12.8,2.2-17.1-2.4c-0.8-0.9-2-1.4-3.3-1.3c-11.3,0.1-22.6,0.4-33.7,3.2
			c-0.5,0.1-1.1,0.4-1.3-0.3c-0.3-1,0.7-1,1.3-1.1c5.9-1.6,11.9-2.2,18-2.7c5.5-0.4,11.1-0.5,16.9-0.5c-1.2-3.2-1.6-6.3-0.2-9.4
			c1.3-2.9,3.6-5.2,6.6-6.5c5.4-2.4,12.3-1.2,16.2,3.1S-94.7,517.7-97.9,523.6z"/>
		<path class="st52" d="M-77.4,498.2c-1.5,8.1-4.8,15.7-9.6,22.3c-0.5,0.7-1.1,1.1-1.9,0.6s-0.2-1.2,0.2-1.7
			c4.6-6.3,7.7-13.6,9.2-21.3c0.2-0.7,0.3-1.4,1.2-1.3S-77.2,497.5-77.4,498.2z"/>
		<path class="st53" d="M-76.8,488.2c0,1.5,0,3,0,4.5c0,0.8,0,1.8-1.2,1.8s-1-1-0.9-1.9c0.6-4.6,0.2-9.3-1.1-13.8
			c-0.2-0.7-0.4-1.4,0.4-1.7c0.8-0.3,1.3,0.3,1.6,1.1C-77,481.5-76.6,484.9-76.8,488.2z"/>
		<path class="st54" d="M-83.8,469.5c1.2-0.1,1.5,0.1,1.8,0.5c0.8,1.1,1.5,2.4,2.1,3.7c0.2,0.5,0.2,1-0.3,1.3
			c-0.4,0.3-0.9,0.3-1.2-0.1c-0.9-1.5-1.8-2.9-2.5-4.5C-84.1,470.1-84,469.7-83.8,469.5z"/>
		<path class="st55" d="M-124.2,392.8c5.5-3.4,11.6-3.8,17.8-2.9c8.1,1.1,13.7,6.9,15.2,15c1.2,6.9,1.2,13.6-2.2,19.9
			c-2.3,4.2-6.1,6.4-10.5,8c-1.1,0.4-0.8-0.6-1.1-0.9c-0.9-0.3-0.9-1.1-1.1-1.8c-2-6.4-1.8-13-1.1-19.6c0.3-3.2,0.3-6.4,0.1-9.6
			c-0.1-1.2-0.4-2.4-1-3.4c-1.6-3.1-4.4-4-7.5-2.5c-1.1,0.6-2.2,1.3-3.4,1.8C-121.8,397.9-124.3,396-124.2,392.8z"/>
		<path class="st56" d="M-124.2,392.8c0.5,0.8,0.9,1.5,1.4,2.3c1.1,1.8,2.6,1.8,4.2,0.6l0.7-0.5c6.4-4.6,11.2-0.5,11.8,5.9
			c0.4,4.6-0.2,9.1-0.6,13.6c-0.4,4.8,0,9.6,1.2,14.2c0.2,1,0.3,1.9,0.4,2.9c-0.3,4.2-1.9,6.4-5.3,7c-4.4,0.8-8.9-1.3-10.5-4.7
			c-0.3-0.7-0.5-1.4-0.8-2.1c-1.2-2.2-0.8-4.5-0.2-6.8c0.7-2.7,1.6-5.3,2.1-8c0.2-0.8,0.1-1.7-0.2-2.5c-0.4,2-1,3.9-1.8,5.7
			c-0.9,2.1-2.1,4-3.6,5.7c-0.5,0.8-1.4,1.2-2.3,1.2c-6.8,5.3-14.4,6-22.5,4.2c-0.9-0.2-1.7-0.5-2.6-0.7
			c-5.4-2.3-10.1-5.3-12.8-10.7c-0.2-0.4-0.4-0.8-0.6-1.2c-0.2-0.7-0.6-1.5,0.4-1.9c0.8-0.3,1.2,0.4,1.5,1c3.4,7.3,9.5,10.9,17,12.1
			c6.4,1,12.7,0.4,17.9-4.2c3.9-3,5.7-7.2,6.4-11.9c0.2-1.5,0.8-3,2.5-3.3c1.8-0.3,2.8,0.6,3.4,2.2c0.7,1.2,1,2.6,0.8,4
			c-0.2,2.6-0.7,5.1-1.5,7.6c-0.6,1.6-0.9,3.2-1.1,4.8c-0.6,3.3,1.7,6.5,5,7c0.3,0,0.5,0.1,0.8,0.1c3.7,0.3,5.6-2,4.8-5.6
			c-0.2-2-1.3-3.9-0.7-6c-0.2-6.2,0-12.4,0.7-18.6c0.4-2.6,0.1-5.3-0.8-7.8c-1.2-3.1-3.5-3.9-6.5-2.3c-6.6,3.6-7.1,3.5-11.1-2.8
			c-1.7-2.8-4.2-4.9-7.2-6.3c-0.6-0.3-1.6-0.5-1.1-1.5c0.5-1.1,1.3-0.5,2-0.2C-129.3,386.8-126.2,389.5-124.2,392.8z"/>
		<path class="st57" d="M-93.5,389.6c0,1.8-1.1,2.3-2.8,1.7c-3.8-1.4-6.3-4.2-8.4-7.4c-0.7-1-1.4-2.3-0.4-3.5c1-1.2,2.3-0.6,3.3,0
			c3.2,1.7,5.8,4.2,7.8,7.3C-93.7,388.3-93.5,389-93.5,389.6z"/>
		<path class="st58" d="M-108.8,424.6c0.6,2,1.1,4,1.4,6.1c0.2,2.6-0.2,3-2.7,3.1c-5.4,0.4-8.7-5.3-6.7-8.7l0.3-0.3
			C-113.9,424.8-111.3,425.2-108.8,424.6z"/>
		<path class="st59" d="M-127.4,427.2c4.6-3.9,6.4-9.3,7.3-15.6c1.9,2.3,1.5,4.3,1.2,6.1c-0.4,2.3-1.2,4.6-1.8,6.9
			c-0.7,2.4-0.9,4.8-0.7,7.3C-123.4,430.3-126.1,429.6-127.4,427.2z"/>
		<path class="st60" d="M-117.6,377.4c-1.1-0.5-2.5,0.1-2.9,1.2c0,0.1-0.1,0.2-0.1,0.4c-0.2,0.5-0.5,0.9-1.2,0.5
			c-0.5-0.3-1.3-0.3-0.7-1.2c0.8-1.3-0.3-1.1-0.9-1.1c-0.7,0-1.2-0.3-1.1-1c0.1-0.7,0.7-0.9,1.3-0.8c1.3,0.1,2.5,0.2,3.2-1.3
			c0.4-0.8,1.6-0.7,1.7,0.1c0.1,1.6,1.1,1.2,1.9,1.4s1.9-0.2,1.8,1.1s-1.1,0.9-2,0.9L-117.6,377.4z"/>
		<path class="st61" d="M-118.4,424.4c0.9-3.9,2.4-7.6,1.6-11.7c1.5,0.3,1.1,1.6,1.2,2.5c0.2,3.3-0.6,6.4-0.9,9.7v0.1
			c-0.5,0.4-1.3,0.3-1.7-0.2C-118.3,424.6-118.4,424.5-118.4,424.4z"/>
		<path class="st62" d="M-135.9,481.8c-2.6,0.7-4.8-0.2-7-1.5c-2.9-1.7-5.1-4.4-6.1-7.6c-0.4-1-0.8-2.1-1.1-3.1
			c-1.6-4.3-3-8.7-4-13.2c-0.2-0.8-0.8-2,0.4-2.3c1.4-0.4,1.4,1,1.6,1.9c1.3,5.6,3.2,11.1,5.7,16.3c0.9,2.2,2.4,4.2,4.1,5.8
			c0.9,1.1,2.2,1.9,3.6,2.1c3.7,0.4,5.7-1.8,4.8-5.5c-0.9-3.9-2.8-7.6-3.6-11.6c-0.4-1.8-0.7-3.7-0.7-5.6c0-0.8,0.1-1.5,1-1.5
			c0.9,0,1.2,0.6,1.2,1.5c0,3.6,0.8,7.1,2.3,10.4c0.7,0.6,1.1,1.4,1,2.3c0.7-1.4,2.1-2.2,3.6-2c1.2,0.1,2.3,0.8,2.9,1.8
			c0.9,1.4,0.5,3.3-0.9,4.2c-0.5,0.3-1,0.5-1.6,0.5c-1.6,0.1-2.3,0.5-2.6,2C-131.5,479.3-133.3,480.9-135.9,481.8z"/>
		<path class="st63" d="M-131.2,476.5l-0.6-3.3c0.9,0.7,2.1,0.9,3.2,0.8c1.3,0,2.3-1,2.4-2.3c0.2-1.4-0.7-2.7-2.1-3
			c-1.2-0.4-2.6,0-3.5,1c-0.3,0.3-0.2,0.6,0.1,0.9c0.5,0.5,0.8,1.1,0,1.4s-0.7-0.6-0.8-1c-0.5-1.1-0.9-2.2-1-3.4
			c0.9-0.5,1.9-0.8,2.9-1.1c3.1-0.7,6.1,1.1,6.9,4.2c0.5,2.7-1.5,5.1-4.8,5.6C-129.5,476.4-130.4,476.4-131.2,476.5z"/>
		<path class="st64" d="M-117.8,471.7c-0.4,0-0.9,0-1.4,0c-0.6-0.1-1.5,0.2-1.8-0.6c-0.3-0.8,0.5-1.3,1.1-1.7c1.6-1,1.5-2.3,0.4-3.5
			c-0.8-1-1.1-1.8-0.2-2.7c0.8-0.9,2.2-0.9,3.1-0.1c0,0,0.1,0.1,0.1,0.1c1,0.9,0.7,1.7-0.1,2.7c-0.8,1-1.2,2.4,0.2,3.4
			c0.7,0.5,1.6,0.9,1.3,1.8c-0.3,0.9-1.3,0.4-2,0.6C-117.2,471.8-117.5,471.8-117.8,471.7L-117.8,471.7z"/>
		<path class="st65" d="M-140.4,476.2c-0.7-0.5-1.3-1.1-1.8-1.9c0.7-1.9,2.4-2,4-2.2c0.6-0.1,1.2,0.3,1.3,0.9
			c0.3,0.9,0.1,1.8-0.6,2.4C-138.3,476.1-139.3,476.3-140.4,476.2z"/>
		<path class="st66" d="M-95.8,474.8c-2.8,0.8-4-0.1-4-3c1.6-1.2,3-0.2,4.3,0.6C-94.2,473.3-95.3,474-95.8,474.8z"/>
		<path class="st67" d="M-138.9,477.8c0.2-0.8,0.8-0.8,1.4-0.7c0.6,0,1.1,0.1,1,0.8c-0.1,0.9-0.8,1-1.5,0.9
			C-138.5,478.7-138.9,478.3-138.9,477.8z"/>
		<path class="st68" d="M-134.2,475.9c-0.2,0.5-0.4,1-1,1s-0.7-0.5-0.7-1c0-0.5,0.3-1,0.9-0.9C-134.5,475.1-134.2,475.4-134.2,475.9
			z"/>
		<path class="st69" d="M-104.5,311c-0.1,0.6-0.5,0.7-1.1,0.6c-1.7-0.2-5-3.1-5.3-4.8c-0.2-0.9,0-1.7,1.2-1.6
			C-108,305.3-104.5,309.2-104.5,311z"/>
		<path class="st70" d="M-140.1,484.7c-3.7,2-7.9,3.2-12.2,3.3c-0.4,0.1-0.9-0.2-0.9-0.7c0-0.1,0-0.2,0-0.3c0.3-2.4,0.4-4.9,1.9-7.1
			c0.3-0.4,0.6-1.2,1.3-0.5C-147.3,481.9-143.8,482.9-140.1,484.7z"/>
		<path class="st71" d="M-149.9,469.5c1.9,3.9,3.8,7.8,7.1,10.8c-3-0.8-5.3-3.1-6-6.1C-149.2,472.6-150.3,471.2-149.9,469.5z"/>
		<path class="st72" d="M-116.5,509.2c6.7-5.6,17.2-2.1,18.7,6.3c0.5,2.1-0.1,4.2-1.6,5.7c-2,2.5-4.9,2.3-7.6,2.1
			c-5.1-0.3-9.4-3.9-10.5-8.9C-118.1,512.6-117.7,510.7-116.5,509.2z"/>
		<path class="st73" d="M-116.5,509.2c-1.1,4.1-0.4,7.9,3,10.7c3.8,3,8,3.5,12.6,1.9l1.5-0.5c-1.1,3.1-3.7,4.5-6.6,5.1
			c-5.5,1.2-11.3-0.7-13.7-6.5C-121.2,516.1-119.8,511.7-116.5,509.2z"/>
		<path class="st74" d="M-118.4,424.4l2,0.6c0,1.7-0.4,3.5,0.5,5.1c1.6,2.5,4.7,3.7,7.6,2.9c1.3-0.4,0.6-1.5,1-2.2
			c0.9,3.9-1,6.3-4.9,6.3c-4.7,0-7.6-3.2-7.2-7.9C-119.3,427.5-119,425.9-118.4,424.4z"/>
		<path class="st75" d="M-106.8,508.2c1.6,0.2,3.1,0.8,4.4,1.8c0.7,0.5,1,1.4,0.7,2.2c-0.2,0.9-1,1-1.8,1c-1.8,0.1-3.3-0.9-4.7-1.9
			c-0.7-0.5-1.3-1.1-1-2.1S-107.8,508.2-106.8,508.2z"/>
	</g>
</g>
</svg>
