<svg width="2085" height="820" viewBox="0 0 2085 820" fill="none" xmlns="http://www.w3.org/2000/svg">
<path d="M65.4195 579.556L49.9254 566.767V569.227L47.2201 571.932L42.0554 566.767V564.062L44.7607 553.733V551.027L42.0554 548.568L44.7607 535.533L42.0554 527.663V524.958L44.7607 522.498L42.0554 519.793L47.2201 504.299V501.594H42.0554V499.134L44.7607 488.559L42.0554 478.23V470.36C42.0554 457.571 44.6787 450.685 49.9254 449.701H52.3848L47.2201 462.735L65.4195 460.03V457.325H60.2548V454.865L62.9601 439.125L57.5495 431.501V428.796H62.9601V423.631C57.7134 423.631 55.0901 421.91 55.0901 418.467V410.597H57.5495L65.4195 392.397C65.4195 385.511 62.7962 382.068 57.5495 382.068V376.903L60.2548 374.198H57.5495C58.8611 356.818 63.2061 348.128 70.5842 348.128V342.964H62.9601L60.2548 345.669V340.504L62.9601 337.799C57.7134 337.799 55.0901 336.077 55.0901 332.634H60.2548V329.929H57.5495L47.2201 337.799L44.7607 324.764V311.73H47.2201L49.9254 327.47H52.3848C52.3848 320.419 54.1063 316.894 57.5495 316.894C57.5495 309.188 54.1063 301.4 47.2201 293.53V291.071H49.9254L52.3848 293.53H60.2548V288.365H55.0901V283.201L57.5495 280.495H55.0901C50.6632 280.495 48.0399 284.021 47.2201 291.071H44.7607V288.365L47.2201 280.495L44.7607 270.166V238.932L47.2201 236.473L44.7607 233.767V223.438H47.2201L55.0901 228.603H57.5495L55.0901 225.897L57.5495 215.568H68.1248L70.5842 218.273L73.2895 215.568H106.983C106.983 220.815 108.787 223.438 112.394 223.438V218.273L114.853 220.733H117.558L120.018 218.273H135.758C144.448 218.273 149.612 220.815 151.252 225.897V278.036L148.792 291.071L151.252 298.695V329.929L148.792 332.634H151.252C151.252 346.407 156.499 353.293 166.992 353.293H216.425L229.214 350.834L237.084 358.704C237.084 353.457 238.806 350.834 242.249 350.834H244.954V355.998L260.448 350.834L268.318 353.293V350.834L276.188 342.964L273.483 332.634V283.201L276.188 280.495L273.483 278.036V259.837L276.188 246.802L273.483 238.932V228.603L278.648 223.438H281.353L283.812 225.897L291.682 223.438V215.568L309.882 220.733L315.047 215.568H317.752V223.438H322.917V215.568H359.315L362.021 218.273L364.48 215.568H372.35L375.055 223.438V225.897L372.35 228.603H375.055L382.679 223.438H385.385V236.473L382.679 238.932L387.844 254.672L382.679 283.201L387.844 288.365L372.35 311.73H375.055L372.35 314.435L377.515 327.47H380.22L382.679 316.894L380.22 306.565L382.679 298.695H385.385L387.844 324.764L382.679 329.929L387.844 350.834V355.998L385.385 358.704L377.515 355.998H375.055L377.515 363.868L375.055 371.493H377.515L382.679 376.903V379.363L377.515 384.527H375.055V379.363H372.35L367.185 392.397H364.48C361.529 392.397 358.987 388.052 356.856 379.363H354.151L351.445 382.068L356.856 387.233L351.445 392.397L354.151 395.103V397.562L351.445 400.267L362.021 397.562H364.48L367.185 400.267L377.515 392.397C382.761 392.397 386.205 396.742 387.844 405.432V407.891L385.385 410.597L387.844 413.302V436.666L385.385 439.125L369.645 433.961V441.831H375.055L377.515 439.125C384.401 443.388 387.844 451.258 387.844 462.735V551.027L385.385 553.733L387.844 556.192V564.062L385.385 577.097H380.22L382.679 569.227V566.767H372.35L367.185 579.556H341.116L335.951 574.391H333.246L330.787 577.097H325.622L322.917 574.391V577.097L320.211 579.556L309.882 577.097L281.353 579.556L273.483 553.733V537.992H278.648L281.353 540.698V537.992L283.812 535.533C276.926 535.533 273.483 532.91 273.483 527.663L278.648 522.498L273.483 491.264L283.812 488.559L276.188 478.23C276.188 474.786 278.73 473.065 283.812 473.065V470.36C278.73 470.36 276.188 468.638 276.188 465.195V462.735L278.648 460.03C271.761 449.701 268.318 441.913 268.318 436.666L276.188 426.337V423.631H268.318C268.318 428.878 266.597 431.501 263.154 431.501V433.961L265.613 436.666V441.831L260.448 449.701H257.989L255.284 446.995V444.536L257.989 441.831H250.119V449.701H244.954L239.789 444.536V441.831L242.249 439.125L239.789 436.666C235.363 436.666 232.739 440.109 231.919 446.995H226.755L224.049 444.536V441.831L226.755 439.125H218.885C218.885 444.372 217.163 446.995 213.72 446.995H211.015V441.831H208.555L203.391 446.995L195.521 439.125C192.078 439.125 190.356 441.749 190.356 446.995H182.486V439.125H179.781L177.321 441.831L179.781 444.536L174.616 449.701H169.451L166.992 446.995L151.252 457.325L153.957 460.03L151.252 467.9L153.957 478.23L148.792 486.1H146.087L148.792 493.724V496.429L146.087 499.134L148.792 501.594V504.299H143.382V506.758C150.432 506.758 153.957 508.48 153.957 511.923V514.628C153.957 518.072 149.612 519.793 140.922 519.793V524.958L143.382 522.498L153.957 524.958V527.663L151.252 537.992L153.957 548.568V556.192C153.957 565.21 151.334 572.998 146.087 579.556L138.217 577.097L127.888 579.556H106.983C103.54 579.556 101.818 576.113 101.818 569.227H99.3589C93.4564 576.113 88.2097 579.556 83.6189 579.556L73.2895 577.097H70.5842L68.1248 579.556H65.4195ZM351.445 569.227L354.151 566.767L348.986 561.357V569.227H351.445ZM106.983 543.157C112.23 543.157 114.853 541.436 114.853 537.992L104.524 540.698V543.157H106.983ZM57.5495 504.299V501.594L52.3848 506.758V509.464L57.5495 504.299ZM101.818 509.464L104.524 506.758V504.299L101.818 501.594L96.6536 506.758V509.464H101.818ZM377.515 509.464L380.22 506.758L375.055 501.594H372.35L375.055 509.464H377.515ZM93.9483 496.429V488.559L88.7836 483.394L86.3242 491.264L93.9483 496.429ZM125.182 493.724C128.79 493.724 131.413 488.559 133.052 478.23L127.888 473.065H125.182V478.23L127.888 480.935C127.888 486.018 126.166 488.559 122.723 488.559V491.264L125.182 493.724ZM328.081 493.724V486.1H322.917V488.559L328.081 493.724ZM375.055 488.559V480.935L369.645 486.1V488.559H375.055ZM309.882 478.23L312.587 470.36L307.422 462.735H304.717L307.422 478.23H309.882ZM106.983 475.524V473.065L96.6536 467.9V475.524H106.983ZM148.792 473.065L146.087 465.195H140.922V475.524L148.792 473.065ZM382.679 475.524V473.065L377.515 467.9V470.36L382.679 475.524ZM304.717 470.36L299.552 465.195H296.847V470.36H304.717ZM127.888 465.195L130.593 457.325H125.182L122.723 460.03L127.888 465.195ZM294.388 460.03L289.223 454.865H281.353L289.223 465.195L294.388 460.03ZM73.2895 462.735L75.7489 454.865H70.5842L68.1248 457.325L73.2895 462.735ZM359.315 462.735L362.021 460.03L356.856 454.865H354.151L356.856 462.735H359.315ZM377.515 462.735L382.679 454.865L372.35 452.16C372.35 455.603 369.727 457.325 364.48 457.325V460.03L377.515 462.735ZM359.315 449.701L362.021 441.831L348.986 436.666V441.831H356.856V444.536L354.151 446.995V449.701H359.315ZM286.518 439.125V433.961H278.648L281.353 444.536L286.518 439.125ZM299.552 444.536V439.125H291.682V444.536H299.552ZM325.622 444.536L330.787 439.125V436.666L320.211 439.125V444.536H325.622ZM218.885 431.501V428.796L211.015 426.337V428.796L213.72 431.501H218.885ZM291.682 428.796H294.388L296.847 431.501L302.012 423.631L291.682 420.926V423.631L283.812 420.926H278.648L283.812 431.501L291.682 428.796ZM109.688 428.796L114.853 423.631V418.467L106.983 423.631V428.796H109.688ZM312.587 428.796L309.882 420.926V418.467H315.047L309.882 405.432H304.717L302.012 407.891L307.422 420.926H304.717L312.587 428.796ZM385.385 423.631L380.22 415.761V407.891L382.679 405.432H380.22V400.267H372.35V405.432L377.515 413.302V415.761L372.35 423.631V428.796L385.385 423.631ZM335.951 423.631L341.116 418.467H333.246V423.631H335.951ZM367.185 423.631V420.926L362.021 415.761V418.467L367.185 423.631ZM268.318 418.467V413.302L265.613 410.597H257.989V413.302C263.072 413.302 265.613 415.024 265.613 418.467H268.318ZM315.047 413.302C323.736 413.302 328.983 408.957 330.787 400.267V397.562L322.917 400.267C322.917 405.35 320.293 407.891 315.047 407.891V413.302ZM338.657 413.302L343.821 407.891H333.246V413.302H338.657ZM286.518 410.597H289.223V405.432L281.353 402.727H278.648L286.518 410.597ZM302.012 402.727L304.717 400.267H307.422L309.882 402.727V395.103H304.717L299.552 400.267V402.727H302.012ZM255.284 395.103V389.692L247.414 392.397V397.562L255.284 395.103ZM320.211 395.103L322.917 397.562H325.622L328.081 395.103L325.622 387.233H320.211L317.752 395.103H320.211ZM268.318 389.692H283.812V384.527L276.188 387.233L265.613 384.527H263.154L268.318 389.692ZM322.917 382.068L320.211 374.198L315.047 379.363L322.917 382.068ZM291.682 379.363L294.388 376.903L291.682 369.033L294.388 361.163V358.704L283.812 361.163L286.518 379.363H291.682ZM367.185 374.198L362.021 366.328H356.856V369.033L362.021 374.198H367.185ZM322.917 369.033L325.622 361.163V355.998L320.211 361.163V369.033H322.917ZM354.151 369.033L351.445 361.163H348.986V369.033H354.151ZM309.882 366.328H312.587V361.163H302.012V363.868L309.882 366.328ZM70.5842 363.868V358.704H68.1248L62.9601 363.868H70.5842ZM362.021 353.293H364.48L367.185 350.834V348.128L364.48 345.669L356.856 348.128L362.021 353.293ZM382.679 353.293V350.834L377.515 345.669V353.293H382.679ZM372.35 345.669L377.515 340.504H375.055L369.645 345.669H372.35ZM359.315 335.094V327.47H356.856L354.151 329.929L359.315 335.094ZM317.752 319.6L325.622 316.894V311.73L315.047 316.894V319.6H317.752ZM44.7607 303.86V298.695L49.9254 303.86V311.73H47.2201L44.7607 303.86ZM88.7836 303.86V298.695H86.3242L81.1595 303.86H88.7836ZM93.9483 303.86L96.6536 301.4L91.4889 296.235V303.86H93.9483ZM112.394 303.86V301.4L104.524 298.695H101.818V301.4L104.524 303.86H112.394ZM322.917 303.86L328.081 298.695H325.622L320.211 303.86H322.917ZM348.986 303.86V301.4L346.281 298.695L341.116 303.86H348.986ZM382.679 288.365L377.515 280.495H372.35V283.201H377.515V288.365L369.645 291.071V293.53L372.35 296.235L382.679 288.365ZM299.552 285.66L302.012 283.201L296.847 278.036V285.66H299.552ZM93.9483 275.331L99.3589 270.166H96.6536L91.4889 275.331H93.9483ZM55.0901 265.001L57.5495 251.967H52.3848L49.9254 265.001H55.0901ZM380.22 265.001L377.515 251.967H372.35L375.055 265.001H380.22ZM60.2548 244.097V238.932L52.3848 236.473V244.097H60.2548ZM375.055 244.097H377.515L380.22 236.473L369.645 238.932L375.055 244.097ZM199.21 283.447V275.577H191.34L194.045 288.611L199.21 283.447ZM360.299 247.048H352.675V249.507L355.134 252.213L360.299 247.048ZM580.659 209.665L573.035 219.995L583.119 217.535L593.448 219.995H596.154L598.613 217.535L608.942 219.995H611.402L613.861 217.535L642.144 222.7L649.768 219.995L662.557 222.7C672.558 222.7 682.806 242.293 693.299 281.479L688.134 289.103H693.299C697.398 292.874 705.924 313.369 718.877 350.588L764.867 488.805L762.408 491.264H767.572L793.15 567.997C792.166 574.883 789.543 578.326 785.28 578.326H759.702L757.243 575.621C757.243 579.064 744.454 580.786 718.877 580.786H698.464C689.282 580.786 683.298 577.343 680.51 570.456V567.997L682.97 565.538L677.805 560.373C677.805 548.404 658.212 542.419 619.026 542.419L616.566 544.879L606.237 542.419H583.119L552.623 547.584C550.163 560.209 544.179 570.456 534.669 578.326L437.278 580.786L424.489 575.621C458.756 467.572 477.529 412.974 480.809 411.826L478.349 409.367C478.349 402.481 480.071 399.038 483.514 399.038L503.927 329.929V327.47L501.467 325.01L503.927 301.892C517.207 238.768 542.785 207.206 580.659 207.206V209.665ZM639.439 442.569C630.421 391.413 621.895 365.836 613.861 365.836H611.402C595.99 405.514 588.284 431.993 588.284 445.274L606.237 450.193L616.566 447.733H639.439V442.569ZM549.179 379.608H547.212L549.179 382.56H550.163L551.147 381.576L549.179 379.608ZM578.692 385.511H576.724L577.708 384.527V383.543L576.724 382.56H578.692V385.511ZM549.179 385.511V387.478H552.131V386.495L549.179 385.511ZM496.057 390.43L494.089 392.397H493.106L492.122 391.413L494.089 388.462L496.057 390.43ZM550.163 392.397V394.365H553.114V391.413L550.163 392.397ZM514.994 231.8L515.978 232.784L514.994 235.735V236.719H516.962C516.962 234.751 517.617 233.767 518.929 233.767H520.897L519.913 236.719L520.897 242.621V245.572C522.864 245.572 523.848 246.228 523.848 247.54V248.524H515.978V249.507L516.962 250.491L514.01 253.442H513.027V251.475L514.01 250.491L513.027 249.507L509.092 250.491L506.14 247.54V245.572H508.108L509.092 246.556V243.605L508.108 242.621L505.157 244.589L503.189 242.621V240.654C507.78 239.67 510.075 238.686 510.075 237.702V236.719H507.124V234.751C511.715 233.767 514.01 232.784 514.01 231.8H514.994ZM551.147 398.3L550.163 399.283V400.267L551.147 401.251L553.114 399.283V398.3H551.147ZM634.766 400.267C635.422 404.202 637.061 406.17 639.685 406.17V407.154L637.717 409.121H636.733L635.75 408.137C633.454 414.696 631.487 417.975 629.847 417.975H628.863L627.88 416.991L626.896 417.975C624.272 417.975 622.961 414.368 622.961 407.154L620.993 409.121L617.058 408.137V406.17L621.977 403.219H623.945V405.186H625.912L623.945 402.235L625.912 400.267H634.766ZM530.488 403.219V404.202C530.488 406.17 531.144 407.154 532.456 407.154L531.472 403.219H530.488ZM526.553 408.137L525.569 409.121L526.553 414.04V415.024L525.569 416.007C528.685 418.631 531.308 419.942 533.439 419.942H534.423V417.975C530.488 417.975 528.521 416.991 528.521 415.024V408.137H526.553ZM433.097 409.121L431.129 411.089V412.072H434.08V409.121H433.097ZM551.147 412.072V413.056H553.114L554.098 412.072V411.089L553.114 410.105L551.147 412.072ZM532.456 411.089L531.472 412.072L533.439 414.04V411.089H532.456ZM626.896 412.072V414.04L627.88 415.024L629.847 413.056V412.072H626.896ZM502.205 257.377L501.222 261.312C501.385 263.116 503.025 264.428 506.14 265.247L507.124 264.264L510.075 266.231L509.092 262.296L512.043 259.345H513.027V263.28L517.945 262.296L519.913 264.264V266.231L518.929 267.215L515.978 266.231H514.994V267.215L516.962 270.166V271.15L514.994 273.117H512.043L513.027 268.199L508.108 269.182H507.124L504.173 267.215C502.861 267.215 502.205 268.199 502.205 270.166H499.254V266.231C496.467 266.231 493.843 267.543 491.384 270.166L492.368 274.101C494.991 274.101 496.303 274.757 496.303 276.069C494.663 280.659 493.024 282.955 491.384 282.955L492.368 286.89L490.4 292.792H488.433L487.449 287.874H485.481V294.76L481.546 297.711H480.563V295.744L482.53 293.776L480.563 290.825L477.611 291.809C475.644 291.809 474.66 291.153 474.66 289.841L476.628 286.89V285.906C474.004 285.906 472.693 285.25 472.693 283.939V280.987H477.611L479.579 279.02V278.036H477.611V277.052C477.611 275.741 478.923 275.085 481.546 275.085V273.117L480.563 268.199L484.498 265.247H486.465L487.449 266.231L489.416 264.264L492.368 266.231L491.384 261.312V260.329H492.368C493.679 260.329 494.335 261.64 494.335 264.264L499.254 261.312V260.329L496.303 259.345L495.319 260.329H493.352V256.394L494.335 255.41L502.205 257.377ZM478.349 419.942V423.877L480.317 425.845V419.942H478.349ZM507.124 261.312L505.157 263.28L503.189 261.312L505.157 259.345H507.124V261.312ZM524.586 423.877V424.861L526.553 422.894V421.91L524.586 423.877ZM484.498 268.199V272.134H486.465V268.199H484.498ZM497.287 271.15L495.319 273.117H494.335V269.182H497.287V271.15ZM454.739 443.552V445.52H456.707V441.585L454.739 443.552ZM503.927 445.52H499.992V442.569H503.927V445.52ZM412.438 450.439V451.422H410.47L409.487 450.439V449.455L410.47 448.471L412.438 450.439ZM445.885 452.406H444.902V454.374H447.853L445.885 452.406ZM578.938 299.679C580.905 302.302 583.529 303.614 586.808 303.614H587.792L584.84 314.435C582.873 314.435 581.889 312.139 581.889 307.549H580.905L579.922 310.5L582.873 316.402L578.938 320.337C577.626 320.337 576.97 319.354 576.97 317.386H575.003L575.987 320.337L574.019 322.305L571.068 319.354C567.133 319.354 565.165 318.698 565.165 317.386V316.402H570.084V314.435L564.182 312.467V311.484L565.165 310.5H566.149L567.133 311.484H569.1C569.1 309.516 570.412 307.877 573.035 306.565C573.035 310.5 574.019 312.467 575.987 312.467H576.97V311.484L575.003 308.532V307.549C576.97 305.745 578.282 303.122 578.938 299.679ZM429.162 460.276L430.145 461.26L428.178 463.227H427.194V461.26L428.178 460.276H429.162ZM557.295 313.451L554.344 316.402L551.393 314.435V318.37L554.344 317.386L556.312 319.354V320.337L555.328 321.321H554.344L553.36 320.337H552.377V323.289H555.328V325.256L556.312 331.159L555.328 336.077H554.344L549.425 333.126V334.11L551.393 337.061L549.425 339.029L546.474 336.077L542.539 338.045L541.555 337.061C541.555 335.913 543.523 334.93 547.458 334.11L545.49 332.142H544.507L539.588 333.126V328.207H540.572L541.555 329.191H544.507V327.224C541.883 327.224 540.572 326.24 540.572 324.272V316.402L541.555 315.419L539.588 313.451V311.484L545.49 309.516L550.409 310.5V309.516L551.393 308.532L557.295 313.451ZM561.968 476.016L560.984 477L562.952 478.967H563.936V476.016H561.968ZM609.188 477.984L610.172 478.967L608.205 480.935H607.221V477.984H609.188ZM557.049 487.821V493.724H558.033L559.017 488.805V487.821H557.049ZM485.481 331.159L484.498 334.11L491.384 335.094V336.077L490.4 337.061L486.465 340.012V340.996C488.433 340.996 489.416 341.652 489.416 342.964V343.947L485.481 342.964L481.546 344.931V342.964C481.546 341.652 482.53 340.996 484.498 340.996V339.029H481.546V340.996H478.595C478.267 338.373 477.284 337.061 475.644 337.061L476.628 336.077L475.644 332.142V331.159L476.628 330.175L479.579 332.142H481.546L482.53 328.207H484.498L485.481 331.159ZM587.546 498.642H586.562V501.594L589.513 500.61L587.546 498.642ZM573.773 500.61V501.594H575.741V498.642L573.773 500.61ZM572.789 514.382L573.773 515.366L571.806 517.334H570.822V515.366L571.806 514.382H572.789ZM990.392 214.338H1043.27L1050.65 219.257L1055.81 214.338L1060.73 219.257L1063.44 216.798H1068.35C1071.8 216.798 1073.52 220.159 1073.52 226.881H1083.6L1080.9 224.422V221.716H1083.6L1116.31 231.8V234.259L1111.15 241.883L1126.4 244.343L1128.86 241.883H1131.31C1139.35 243.523 1146.89 249.425 1153.94 259.591C1159.02 259.591 1161.56 262.132 1161.56 267.215L1159.11 274.593H1161.56C1168.29 274.593 1171.65 276.315 1171.65 279.758V282.217L1166.48 289.841L1174.11 292.3L1176.57 289.841L1189.36 320.091V325.01H1184.19V340.012L1176.57 350.096L1164.02 347.637L1156.4 350.096L1153.94 347.637L1151.48 350.096L1149.02 342.718L1131.31 350.096L1128.86 347.637H1126.4L1118.77 350.096L1116.31 347.637H1113.61L1111.15 350.096L1090.98 345.177L1088.52 347.637V350.096L1086.06 347.637H1083.6L1073.52 350.096L1058.27 322.551C1053.19 322.551 1050.65 318.37 1050.65 310.008L1048.19 312.467H1040.56L1035.64 307.303L1038.1 304.843V302.384H1028.02V307.303L1017.94 304.843L1010.56 307.303V304.843L1007.85 307.303H997.77V302.384H990.392C990.392 309.106 986.211 312.467 977.849 312.467C959.814 328.043 948.829 346.489 944.894 367.803H942.434L944.894 370.263L939.975 402.973L944.894 408.137V410.597L939.975 418.221V420.68L942.434 423.139V425.845C936.204 425.845 927.842 430.026 917.349 438.388V435.928C912.266 435.928 909.724 438.388 909.724 443.306H907.265L904.806 440.847L894.722 443.306L897.182 445.766V450.93L894.722 448.471L887.098 450.93L889.558 458.555H892.017L899.641 453.39H904.806V458.555H899.641V463.473L907.265 471.097H909.724V463.473H912.184L917.349 458.555C925.055 460.686 929.236 464.047 929.891 468.638C921.529 468.638 917.349 470.278 917.349 473.557L922.267 478.721C928.99 478.721 933.171 473.639 934.81 463.473H939.975L937.515 465.933V468.638L939.975 471.097L937.515 473.557H939.975L937.515 481.181L939.975 488.805L944.894 483.64L942.434 476.016H944.894L954.977 468.638H957.682C957.682 477 965.224 481.181 980.309 481.181L982.768 488.805L990.392 486.1L1007.85 491.264L1020.64 488.805L1028.02 491.264L1035.64 483.64L1043.27 488.805C1043.27 478.639 1045.73 473.557 1050.65 473.557H1063.44V458.555L1075.98 448.471C1075.98 443.388 1077.62 440.847 1080.9 440.847L1101.06 443.306L1111.15 440.847L1118.77 448.471V440.847H1123.69L1126.4 443.306L1128.86 440.847L1149.02 445.766L1153.94 440.847V443.306L1156.4 440.847H1166.48L1169.19 443.306L1171.65 440.847H1174.11C1187.55 444.946 1194.27 448.307 1194.27 450.93L1189.36 455.849L1184.19 450.93V455.849L1191.82 465.933L1184.19 473.557V476.016H1189.36V481.181C1184.27 481.181 1181.73 483.722 1181.73 488.805L1184.19 491.264V493.724C1184.19 504.709 1173.29 519.793 1151.48 538.976H1149.02V534.057H1141.4L1143.86 536.517V538.976L1138.94 551.519H1136.48L1128.86 546.6H1126.4L1128.86 549.06V556.684C1120.99 556.684 1115.08 558.323 1111.15 561.603L1103.52 559.143V561.603L1096.15 569.227L1090.98 564.308L1080.9 574.391H1068.35L1063.44 569.227V566.767L1065.9 564.308L1063.44 554.224H1060.73V564.308L1063.44 576.851H1043.27L1040.56 579.31H1038.1L1035.64 576.851V574.391L1033.19 576.851H1030.73L1023.1 574.391C1023.1 577.67 1020.56 579.31 1015.48 579.31L977.849 574.391L972.685 579.31C964.159 579.31 938.991 571.768 897.182 556.684V551.519C902.264 551.519 904.806 549.879 904.806 546.6L902.1 544.141H899.641L887.098 549.06V534.057H884.639C884.639 540.78 882.917 544.141 879.474 544.141L856.848 518.809V516.35H862.013V513.891C850.207 513.891 844.305 507.988 844.305 496.183H846.764C845.125 486.182 840.944 481.181 834.222 481.181V476.016C834.222 472.737 836.763 471.097 841.846 471.097V468.638H831.762V463.473C831.762 458.391 836.763 455.849 846.764 455.849V453.39L834.222 450.93L831.762 453.39L829.057 450.93V448.471L836.681 443.306L844.305 448.471L846.764 445.766L844.305 433.223V425.845C831.844 425.845 825.122 423.303 824.138 418.221V405.678L826.597 395.594L824.138 392.889V390.43L829.057 362.885L831.762 365.344H836.681V362.885C831.598 362.885 829.057 360.343 829.057 355.261C832.664 330.995 839.386 313.369 849.224 302.384L846.764 294.76C856.93 291.481 862.013 283.939 862.013 272.134C877.589 256.394 893.493 243.769 909.724 234.259V236.964L907.265 239.424V241.883L917.349 244.343V241.883L914.889 231.8L922.267 229.34L929.891 231.8L932.351 224.422L950.058 226.881H952.518V224.422H947.599V219.257L990.392 214.338ZM939.975 234.259L937.515 241.883L939.975 244.343H942.434L944.894 241.883L942.434 234.259H939.975ZM954.977 236.964V241.883L962.601 239.424V236.964H954.977ZM977.849 236.964V239.424L985.227 241.883L987.687 239.424V236.964H977.849ZM1073.52 254.426L1078.44 259.591L1080.9 257.131V254.426H1073.52ZM1075.98 267.215V274.593H1080.9L1078.44 267.215H1075.98ZM1116.31 274.593H1123.69V269.674H1121.23L1116.31 274.593ZM1060.73 310.008V317.386H1065.9L1063.44 310.008H1060.73ZM1073.52 314.927V322.551H1080.9L1078.44 314.927H1073.52ZM1186.65 335.094H1191.82V342.718H1186.65V335.094ZM829.057 405.678V408.137L834.222 413.056H836.681V410.597L831.762 405.678H829.057ZM834.222 428.304L841.846 430.764V433.223L836.681 438.388H834.222L829.057 433.223L834.222 428.304ZM879.474 440.847V448.471H887.098V443.306L879.474 440.847ZM947.599 438.388H950.058L954.977 450.93V453.39H950.058C946.615 453.39 944.894 450.848 944.894 445.766L947.599 438.388ZM856.848 445.766V448.471L862.013 455.849C850.207 455.849 844.305 458.391 844.305 463.473V468.638L851.929 463.473C865.374 468.884 872.096 473.967 872.096 478.721L879.474 471.097C874.555 471.097 872.096 469.376 872.096 465.933L869.391 468.638H862.013V463.473C866.931 463.473 869.391 461.834 869.391 458.555C864.8 458.555 862.34 454.292 862.013 445.766H856.848ZM934.81 445.766H939.975V448.471L932.351 455.849H929.891L924.973 450.93V448.471H929.891L932.351 450.93H934.81V445.766ZM1088.52 463.473V465.933H1090.98L1093.44 455.849C1090.16 455.849 1088.52 458.391 1088.52 463.473ZM950.058 461.014H952.518V463.473L947.599 468.638H942.434L950.058 461.014ZM887.098 471.097V473.557L892.017 468.638V465.933L887.098 471.097ZM854.388 483.64V488.805L859.307 483.64V478.721L854.388 483.64ZM912.184 481.181V488.805H917.349L914.889 481.181H912.184ZM952.518 481.181V498.642L962.601 493.724L952.518 481.181ZM967.766 481.181L962.601 486.1L967.766 491.264H972.685V481.181H967.766ZM879.474 483.64V486.1L887.098 493.724V483.64H879.474ZM922.267 488.805L929.891 491.264V483.64H927.432L922.267 488.805ZM1093.44 488.805H1101.06V483.64H1098.6L1093.44 488.805ZM1138.94 486.1L1143.86 491.264H1146.32L1141.4 486.1H1138.94ZM937.515 493.724V501.348H939.975L944.894 496.183L942.434 493.724H937.515ZM977.849 496.183V501.348H980.309L985.227 496.183H977.849ZM1048.19 506.267V521.515H1050.65V506.267H1048.19ZM1058.27 506.267L1060.73 518.809H1063.44V506.267H1058.27ZM952.518 508.726L947.599 513.891V518.809L954.977 511.431V508.726H952.518ZM987.687 508.726L990.392 511.431V513.891L987.687 516.35L990.392 518.809H992.852L995.311 516.35L992.852 508.726H987.687ZM972.685 518.809H975.144L980.309 513.891V511.431L972.685 518.809ZM1073.52 511.431V513.891L1078.44 518.809H1080.9L1073.52 511.431ZM1005.39 521.515H1013.02V516.35H1010.56L1005.39 521.515ZM937.515 528.893L939.975 531.598V541.682L937.515 544.141V546.6L939.975 549.06H944.894L942.434 536.517L944.894 526.433H942.434L939.975 528.893H937.515ZM952.518 531.598V544.141H954.977V531.598H952.518ZM1048.19 554.224V571.686H1050.65V554.224H1048.19ZM987.687 564.308H995.311V559.143H992.852L987.687 564.308ZM1028.02 561.603V564.308L1035.64 566.767V559.143L1028.02 561.603ZM1073.52 559.143V566.767H1075.98L1080.9 561.603L1078.44 559.143H1073.52ZM1263.88 218.273H1282.07L1310.6 220.733L1313.06 218.273H1315.77L1318.23 220.733H1320.93L1331.26 218.273L1336.43 223.438L1341.59 218.273H1357.09L1362.25 223.438V228.603L1359.79 226.143H1357.09V228.603L1364.96 241.637L1362.25 244.097L1367.41 272.625L1364.96 275.331L1367.41 288.12V337.307H1375.28C1375.28 332.06 1379.55 327.798 1388.07 324.518C1388.07 317.304 1400.21 301.728 1424.47 277.79L1426.93 280.495H1429.64C1429.64 271.314 1434.8 261.804 1445.13 251.967L1468.5 226.143L1470.95 228.603H1473.66V218.273H1543.51L1553.84 220.733L1564.17 218.273H1592.69L1597.86 223.438L1600.56 220.733H1605.73V226.143L1603.02 228.603V231.308L1605.73 233.767L1600.56 238.932L1597.86 236.473H1592.69L1595.4 244.097C1595.4 248.687 1584.17 260.82 1561.71 280.495C1561.71 286.89 1554.82 295.498 1541.05 306.319C1541.05 310.09 1530.64 323.043 1509.81 345.177V357.966L1517.68 368.541L1514.98 376.165C1520.22 376.165 1522.85 382.232 1522.85 394.365L1525.31 391.659H1528.01L1530.72 394.365V396.824L1522.85 407.399V409.859H1525.31L1533.18 404.694H1535.88L1556.54 448.717V451.176L1553.84 453.882C1559.41 454.046 1570.64 471.343 1587.53 505.775V508.234H1582.36V510.939L1595.4 523.728L1592.69 531.598L1595.4 528.893H1597.86L1618.52 570.456V575.621H1613.35V570.456H1608.19L1613.35 578.08H1605.73L1597.86 575.621L1585.07 578.08H1499.48C1490.63 578.08 1485.47 575.539 1483.99 570.456L1486.69 567.751V565.292L1468.5 544.387L1470.95 541.928V539.222C1465.87 539.222 1463.33 534.959 1463.33 526.433C1453 520.367 1447.84 510.857 1447.84 497.905L1439.97 490.035L1447.84 482.411L1445.13 479.705H1442.67L1434.8 482.411V479.705C1425.95 456.259 1419.06 443.306 1414.14 440.847H1406.27C1392.5 450.848 1381.27 464.703 1372.58 482.411C1369.14 482.411 1367.41 486.673 1367.41 495.199C1360.53 495.199 1357.09 497.003 1357.09 500.61C1363.97 500.61 1367.41 502.331 1367.41 505.775L1364.96 518.563L1367.41 526.433L1357.09 528.893L1364.96 539.222V549.798L1359.79 565.292L1362.25 575.621L1359.79 578.08H1341.59C1341.59 572.998 1339.87 570.456 1336.43 570.456C1332.98 570.456 1331.26 572.998 1331.26 578.08H1261.42L1253.55 570.456V254.426C1253.55 230.324 1256.99 218.273 1263.88 218.273ZM1577.2 231.308V236.473H1585.07V231.308H1577.2ZM1313.06 251.967L1323.39 254.426V251.967L1318.23 246.802L1313.06 251.967ZM1300.27 264.755L1302.73 267.461H1305.44L1307.9 259.591H1305.44L1300.27 264.755ZM1313.06 275.331V277.79L1318.23 282.955V280.495L1313.06 275.331ZM1331.26 311.484H1338.89V306.319H1336.43L1331.26 311.484ZM1375.28 352.801L1372.58 355.507V360.671H1375.28L1380.45 355.507V352.801H1375.28ZM1331.26 355.507L1338.89 363.377V360.671L1333.72 355.507H1331.26ZM1442.67 376.165V386.495H1447.84V381.33L1442.67 376.165ZM1398.65 430.518V433.223L1403.81 438.388L1406.27 435.682V433.223L1398.65 430.518ZM1354.63 479.705V484.87H1362.25L1357.09 479.705H1354.63ZM1293.63 571.194V574.391H1298.55L1301.75 571.194L1300.03 569.473H1298.55L1293.63 571.194ZM1327.33 571.194V574.391H1332.25L1329.05 571.194H1327.33ZM1818.71 216.552H1823.88H1863.23C1888.8 216.552 1915.94 224.75 1944.63 241.145C1977.59 265.575 1994.06 289.513 1994.06 312.959L1991.61 315.419H1986.69L1984.23 312.959L1981.77 315.419L1860.77 320.337C1846.34 305.417 1832.32 297.957 1818.71 297.957H1813.79C1795.76 297.957 1786.74 304.597 1786.74 317.878C1786.74 332.634 1804.86 341.652 1841.09 344.931L1848.47 347.391V344.931L1850.93 347.391H1853.39C1859.45 347.391 1884.13 350.67 1927.42 357.228C1954.96 364.934 1975.54 378.133 1989.15 396.824L2001.44 431.255V478.23C2001.44 499.544 1989.15 521.761 1964.55 544.879C1929.3 566.357 1879.87 577.097 1816.25 577.097C1751.49 577.097 1711.24 563.898 1695.5 537.501C1682.71 523.892 1672.79 507.414 1665.74 488.067V478.23L1670.66 473.311L1801.5 468.392C1813.63 481.673 1825.19 489.051 1836.17 490.526L1838.63 488.067H1841.09L1850.93 490.526C1864.7 487.247 1872.9 481.509 1875.52 473.311V461.014C1875.52 451.176 1845.93 442.896 1786.74 436.174L1784.28 438.634V436.174L1781.82 438.634L1764.6 433.715C1761.33 433.715 1759.69 432.075 1759.69 428.796H1754.52V431.255C1702.55 418.959 1671.31 396.742 1660.82 364.606L1654.67 333.372L1658.36 310.254C1658.36 277.134 1678.94 250.819 1720.09 231.308C1737.47 223.11 1770.34 218.191 1818.71 216.552Z" fill="#FFD600"/>
<path d="M36.4358 45.2591L37.5784 46.5162L38.6692 46.5682L43.3076 45.5867L44.4502 46.8438L45.5982 45.6959L50.2885 45.9195L51.322 47.1713L52.5791 46.0287L55.9605 46.1899L59.3365 48.7559C59.4128 47.1561 60.6144 46.4117 62.9413 46.5226L63.9749 47.7745L69.8132 46.8502L73.1945 47.0114L77.7185 48.4296L82.466 47.4534L83.4996 48.7052L84.7566 47.5626L89.3378 47.7809L98.443 49.4175L107.663 48.6545L107.605 49.8543L108.863 48.7117L111.153 48.8208L112.296 50.0779L113.444 48.93L114.644 48.9872L121.458 50.5146L128.387 49.6424L130.563 52.1513L131.82 51.0086L131.878 49.8088L139.783 51.3882L153.636 52.0485L156.851 55.7001L155.708 56.7389L156.741 57.9908L156.362 65.9533L154.938 72.8822L155.759 78.6062L154.668 78.5542L155.702 79.806L155.65 80.8968L154.335 85.5351L155.208 90.1683L151.717 92.2977L150.574 91.0407L144.845 91.9701L116.049 90.5974L115.016 89.3456C111.109 90.2527 109.054 92.8514 108.85 97.1417L107.591 123.538L105.622 139.624L106.77 140.772L105.294 146.496L104.416 164.93L101.302 207.309L97.7027 209.433L59.8532 207.629C55.8537 207.438 53.5805 206.2 53.0335 203.915L53.7458 188.971L55.0029 187.828L53.855 186.68L54.4582 174.028L55.7152 172.885L54.5674 171.737L57.0892 118.835L58.341 117.801L57.1983 116.544L58.2383 94.7291C58.4566 90.1479 55.9116 87.7308 50.6033 87.4777L49.4606 86.2207L47.0608 88.4021L42.4796 88.1837L41.3318 87.0357L40.189 88.0745L21.7551 87.1958C16.1558 86.9289 13.1554 85.6562 12.7539 83.3777L14.1785 53.4907L16.6355 50.1095L14.4541 47.7097C14.565 45.3827 21.8923 44.5659 36.4358 45.2591ZM105.038 80.78L103.672 84.2133L105.962 84.3224L106.129 80.832L105.038 80.78ZM246.169 55.6942L248.459 55.8034L265.912 56.6353C277.256 57.1761 289.117 61.3857 301.496 69.264C315.596 80.7957 322.398 91.7608 321.902 102.159L320.759 103.198L318.578 103.094L317.539 101.951L316.396 102.99L262.627 102.614C256.543 95.6912 250.483 92.0862 244.448 91.7985L242.266 91.6945C234.267 91.3132 230.128 94.0676 229.847 99.9577C229.535 106.502 237.379 110.885 253.381 113.105L256.601 114.352L256.653 113.261L257.692 114.404L258.782 114.456C261.473 114.584 272.348 116.56 291.406 120.384C303.46 124.384 312.307 130.673 317.948 139.251L322.673 154.781L321.68 175.615C321.23 185.068 315.306 194.661 303.91 204.395C287.821 213.175 265.67 216.893 237.456 215.548C208.732 214.179 191.159 207.474 184.736 195.434C179.352 189.128 175.301 181.61 172.583 172.88L172.791 168.517L175.077 166.44L233.209 167.024C238.309 173.171 243.28 176.688 248.121 177.574L249.264 176.536L250.355 176.588L254.666 177.886C260.843 176.723 264.6 174.351 265.937 170.771L266.197 165.317C266.405 160.954 253.455 156.656 227.346 152.423L226.203 153.462L226.255 152.371L225.112 153.41L217.581 150.865C216.127 150.795 215.434 150.034 215.503 148.579L213.213 148.47L213.161 149.561C190.369 143.008 176.986 132.495 173.012 118.02L170.945 104.037L173.07 93.8622C173.77 79.1732 183.453 67.9371 202.117 60.1538C209.999 56.8853 224.683 55.3988 246.169 55.6942ZM465.407 75.4376L465.303 77.6192L466.503 77.6764L468.897 75.604L465.407 75.4376ZM485.913 76.4151L484.661 77.4487L484.609 78.5395L485.809 78.5967L489.243 77.6671L489.295 76.5763L485.913 76.4151ZM486.682 83.2299L488.863 85.6297L489.954 85.6817L487.772 83.2819L486.682 83.2299ZM463.505 92.4016L464.544 93.5443L465.743 93.6015C465.816 92.0744 467.343 91.382 470.325 91.5241L469.395 88.0907L463.505 92.4016ZM463.344 95.7829L465.525 98.1827L466.673 97.0349L466.725 95.9441L463.344 95.7829ZM356.131 104.228L359.403 106.68L359.455 105.589L358.526 102.156L356.131 104.228ZM360.333 112.409L360.172 115.791L362.457 113.713L362.514 112.513L360.333 112.409ZM355.533 116.772L356.411 121.296L357.663 120.263L358.754 120.315L364.374 121.676L365.625 120.642L365.735 118.352L362.296 117.095L358.863 118.024L355.533 116.772ZM383.95 116.924L386.132 119.324L383.732 121.505L382.532 121.448L381.603 118.015L382.751 116.867L383.95 116.924ZM388.313 119.428L390.495 121.828L390.443 122.919L388.256 120.628L388.313 119.428ZM355.272 145.184L355.111 148.565L357.402 148.675L356.472 145.241L355.272 145.184ZM352.716 152.934L352.607 155.224L355.989 155.385L356.098 153.095L352.716 152.934ZM351.08 162.039L359.042 162.418L359.152 160.128L353.48 159.857L351.08 162.039ZM353.1 167.82L353.048 168.911L357.629 169.129L357.681 168.038L353.1 167.82ZM361.357 210.194L364.738 210.355L364.847 208.065L363.647 208.007L361.357 210.194ZM397.138 220.974L398.338 221.031L396.157 218.631L394.957 218.574L397.138 220.974ZM482.54 218.267L482.597 217.067L479.268 215.815L478.068 215.758L478.016 216.848L479.159 218.105L482.54 218.267ZM371.558 209.478L371.61 208.387L369.319 208.278L369.158 211.659L371.558 209.478ZM375.308 211.078L375.36 209.987L373.069 209.878L373.178 207.587L375.63 204.315L381.25 205.676L382.341 205.728L383.811 200.113L381.9 192.042L384.191 192.151L384.082 194.441L386.372 192.255L386.643 186.583L382.493 179.607L382.545 178.516L383.693 177.368L380.254 178.407L379.164 178.355L380.093 181.788L380.041 182.879L378.893 184.027C378.751 187.008 375.989 189.136 370.608 190.41C369.081 190.337 367.698 187.247 366.459 181.138L364.168 181.029L364.007 184.411L365.155 185.558L363.955 185.501L362.807 186.649L361.716 186.597L360.573 185.34L358.174 189.817L362.536 192.321L362.427 194.612L356.703 195.432L356.651 196.523C359.705 196.668 361.196 197.505 361.123 199.032L361.066 200.232C360.997 201.686 359.435 202.34 356.381 202.195L356.324 203.395L357.472 204.543L363.086 203.717L365.377 203.826L365.268 206.117L366.468 206.174L366.525 204.974L364.396 201.484L364.614 196.902L366.904 197.012L363.684 191.173L364.884 191.23L368.156 193.682L366.738 200.502L367.668 203.935L368.758 203.987L370.229 198.373L375.901 198.643L376.939 199.786L368.436 210.75L375.308 211.078ZM481.668 211.338L484.068 209.156L482.977 209.104L480.577 211.286L481.668 211.338ZM354.803 180.255L356.055 176.925L356.107 175.835L352.616 177.964L354.803 180.255ZM362.979 176.162L359.65 172.614L358.559 172.562L360.579 178.344L362.979 176.162ZM359.759 170.324L359.811 169.233L357.738 166.838L357.577 170.22L359.759 170.324ZM392.809 169.604L395.209 167.422L396.3 167.474L396.133 170.965L394.99 172.003L392.809 169.604ZM356.648 164.491L359.977 165.743L363.52 164.818L363.629 162.528L362.481 161.38L356.757 162.2L355.666 162.148L354.518 161L353.214 165.42L356.648 164.491ZM380.317 167.915L379.284 166.663L380.536 163.334L381.735 163.391L383.917 165.791L381.517 167.972L380.317 167.915ZM386.15 164.804L388.55 162.622L388.498 163.713L386.098 165.895L386.15 164.804ZM401.151 162.021L400.003 160.873L404.803 156.51L405.894 156.562L405.784 158.852L408.075 158.962L403.816 151.98L405.016 152.038L407.197 154.437L408.288 154.489L409.436 153.342L410.636 153.399L412.708 155.793L412.656 156.884L411.508 158.032L411.399 160.323L415.928 161.632L417.019 161.684L418.162 160.645L420.349 162.936L420.291 164.135L410.147 163.652L402.242 162.073L401.094 163.22L401.151 162.021ZM356.852 137.279L358.109 133.84L355.818 133.731L355.652 137.221L356.852 137.279ZM405.666 138.403L406.809 137.364L405.879 133.931L403.589 133.822L404.466 138.346L405.666 138.403ZM357.231 129.316L357.34 127.025L353.959 126.864L353.85 129.155L357.231 129.316ZM355.268 122.335L360.94 122.605L361.044 120.424L353.082 120.044L355.268 122.335ZM360.224 114.7L360.281 113.5L355.7 113.282L355.643 114.482L360.224 114.7ZM486.8 103.679L488.057 102.537L485.87 100.246L484.78 100.194L484.676 102.375L485.709 103.627L486.8 103.679ZM420.155 95.9106L421.297 94.8719L423.479 97.2716L421.084 99.344L419.993 99.292L420.155 95.9106ZM472.184 100.687L474.584 98.5052L474.636 97.4144L471.093 100.635L472.184 100.687ZM455.386 95.2943C455.275 97.6212 455.983 98.8211 457.511 98.8939L456.638 94.2607L455.438 94.2035L455.386 95.2943ZM480.198 99.9754L481.346 98.8276L481.508 95.4462L480.417 95.3942L479.165 98.7236L479.108 99.9234L480.198 99.9754ZM468.912 98.2348L469.234 91.4721L466.834 93.6535L466.73 95.835L468.912 98.2348ZM475.784 96.2666L475.945 92.8852L473.872 90.4906L473.602 96.1626L475.784 96.2666ZM487.128 96.8073L488.489 93.4832L488.541 92.3924L487.341 92.3352L486.198 93.374L486.037 96.7554L487.128 96.8073ZM463.401 94.5831L463.453 93.4923L464.601 92.3445L464.653 91.2537L461.329 89.8927L460.238 89.8407L460.072 93.3311L463.401 94.5831ZM369.97 75.3705L371.17 75.4277L371.279 73.1371L367.898 72.9759L369.97 75.3705ZM420.254 70.8801L420.306 69.7894L418.016 69.6802L417.855 73.0615L420.254 70.8801ZM488.209 74.1195L489.409 74.1767L490.552 73.1379L488.37 70.7381L487.279 70.6861L486.132 71.8339L488.209 74.1195ZM432.308 223.962L395.985 222.231L394.952 220.979L394.894 222.179L392.713 219.779L389.222 221.908L388.023 221.851L386.989 220.599L386.932 221.799L375.645 220.058L356.339 219.138L355.3 217.995L355.248 219.086C349.174 218.068 346.191 216.431 346.299 214.177L347.717 209.653L346.128 194.819L347.437 190.289L346.508 186.856L349.069 181.293C347.76 181.231 347.086 179.304 347.048 175.512L347.158 173.222L348.628 165.311L347.589 164.168L347.641 163.077L348.789 161.93L348.841 160.839L347.808 159.587L347.86 158.496L349.002 157.457L347.969 156.206L348.671 141.48L349.813 140.442L348.78 139.19L349.643 121.083L350.791 119.935L349.752 118.792L349.804 117.702L350.952 116.554L349.913 115.411L350.345 106.358L351.763 99.5379L350.943 93.8139L351.322 85.8514L352.788 78.0499L351.697 77.9979L351.806 75.7073L353.058 72.3779L351.967 72.3259C352.366 63.9634 354.456 59.8722 358.237 60.0525L370.62 61.736L400.18 63.1451L401.213 64.3969L400.07 65.4357L400.891 71.1596L400.184 85.994L397.789 88.0664L399.913 91.666L399.861 92.7568L397.461 94.9382L399.591 98.4287L398.832 114.354C398.582 119.59 401.456 122.751 407.453 123.839L412.092 122.857L414.273 125.257L417.764 123.128L420.054 123.237L421.088 124.489L422.345 123.346L426.817 123.559L427.96 124.816L429.108 123.668L431.398 123.778C432.925 123.85 433.634 125.05 433.523 127.377L434.613 127.429C434.724 125.102 435.543 123.975 437.07 124.048L439.361 124.157L440.395 125.409L440.452 124.209L444.976 125.627L446.067 125.679L447.324 124.537C449.578 124.644 450.669 125.462 450.596 126.989L452.996 124.807L457.41 126.22L462.049 125.239L489.209 126.533C492.263 126.679 493.573 131.297 493.14 140.386L493.031 142.677L491.888 143.716L492.922 144.968L492.438 155.112L491.077 160.732L492.111 161.983C491.969 164.965 490.77 166.402 488.516 166.294L402.237 162.182C400.419 162.095 398.782 165.078 397.328 171.131L398.205 175.655L397.987 180.236L403.607 181.597L425.204 182.627L431.858 185.24L431.91 184.149L487.487 187.892L488.577 187.944L489.725 189.092L489.948 207.359C488.79 220.933 486.576 227.642 483.303 227.486L457.234 226.243L451.614 224.882L448.181 225.812L444.69 225.646L443.652 224.503L442.509 225.542L441.309 225.484L440.27 224.342L440.218 225.432L432.308 223.962ZM428.766 101.022L431.82 98.8719L434.656 99.007L434.547 101.298L435.965 101.365L436.022 100.165L434.766 96.7164L428.985 96.4409L427.515 97.464L433.888 87.6007L432.361 87.5279L431 86.2605L427.785 91.7921L424.84 91.6517L424.944 89.4701L420.638 90.3581L416.436 89.0646L417.911 85.6365L417.963 84.5458L416.706 83.3926L418.072 82.2552L418.176 80.0736L416.867 80.0112L415.288 81.0292L415.236 82.12L416.706 83.3926L415.179 83.3198C413.289 83.2297 412.397 82.0575 412.504 79.8033C407.705 79.5745 405.342 78.6965 405.415 77.1695L405.472 75.9696L406.89 76.0372L408.141 77.2995L408.303 73.9181L405.742 70.2977L405.794 69.2069L410.048 69.4097L410.1 68.3189L408.63 67.0463L408.682 65.9555L411.736 63.8053L413.264 63.8781L413.154 66.1687L415.777 70.776C426.352 72.1547 431.551 74.6984 431.375 78.407L432.793 78.4746L432.85 77.2747L431.754 70.4444C434.154 70.5588 435.662 68.7357 436.279 64.9752L437.697 65.0428L439.172 66.2064L439.115 67.4062L437.535 68.4242L439.063 68.497C440.991 72.3788 445.7 74.4982 453.19 74.8553L453.242 73.7645L449.098 68.9753L453.622 65.8019L455.04 65.8695L456.406 67.0279L456.349 68.2277L454.879 69.2509L454.821 70.4507L456.239 70.5183C458.13 70.6085 459.131 69.49 459.242 67.1631L459.294 66.0723L473.692 69.0545L478.055 66.9666L478.003 68.0574L480.948 68.1978L480.891 69.3976L479.421 70.4208L480.839 70.4884L485.254 67.3098L495.346 68.8841L495.289 70.084C495.216 71.611 493.289 72.2845 489.508 72.1042L489.404 74.2857L493.658 74.4885L493.491 77.979L491.694 83.5781L494.535 85.9001L494.426 88.1907L488.806 86.8295L487.279 86.7567C487.182 88.7928 489.528 90.0343 494.317 90.4813L494.155 93.8626L488.431 94.683L489.792 95.9505L489.74 97.0412L488.265 98.1735L492.576 97.1764L493.994 97.244C493.814 101.025 492.742 102.869 490.779 102.776C490.671 105.03 489.709 106.114 487.891 106.027L486.364 105.954C486.471 103.7 485.543 102.526 483.58 102.432L483.418 105.814L479.165 105.611L479.326 102.23L480.905 101.212L478.069 98.7807L472.127 101.886L469.291 99.4555L469.343 98.3647L474.033 93.9967L465.198 93.5755L467.977 97.2063C467.713 102.733 466.151 105.683 463.291 106.057L461.764 105.984L460.507 102.535L461.983 101.403L462.196 96.9308L459.36 96.7956L457.671 100.104L459.037 103.558L456.092 105.714C454.565 105.641 453.184 104.045 451.948 100.925L452 99.8338L453.475 98.7015L453.527 97.6108L450.582 97.4704L450.42 100.852L440.328 99.2774L440.386 98.0776L445.071 93.8186L449.325 96.3172L450.634 96.3796L450.691 95.1798L448.068 90.5724L446.65 90.5049L445.18 91.528L442.235 91.3876L440.76 90.2241L442.453 86.8064L442.505 85.7157L441.03 84.5521L442.557 84.6249L442.719 81.2435L441.191 81.1707L441.03 84.5521L439.721 84.4897C437.758 84.3961 436.83 83.2222 436.937 80.968C432.138 80.7392 429.775 79.8612 429.848 78.3342L429.905 77.1343L425.485 78.1262L419.87 76.656L418.343 76.5832C418.287 77.7467 420.195 79.0037 424.066 80.3544L429.796 79.4249L428.107 85.0293L433.997 85.3101L434.107 83.0195L435.416 83.0819C437.379 83.1755 438.689 86.2626 439.347 92.3432L437.872 93.4755L440.599 93.6054L440.547 94.6962L437.659 97.9476L448.893 105.371L438.749 104.887L437.388 103.62L435.804 104.747L434.386 104.679L428.766 101.022ZM396.101 95.9666L396.205 93.785L398.282 96.0705L398.173 98.3612L396.101 95.9666ZM396.589 97.1924L396.75 93.811L400.188 92.7724C402.443 92.8798 403.897 94.4797 404.551 97.572L403.299 98.6055L396.589 97.1924ZM393.094 85.6561L396.584 85.8225L396.532 86.9132L394.132 89.0946L392.932 89.0374L393.094 85.6561ZM424.451 83.7618L420.036 82.3488L418.779 83.4914L419.765 88.0207L424.451 83.7618ZM401.602 86.0616L405.092 86.228C404.618 83.946 403.163 82.3462 400.729 81.4284L400.672 82.6283L399.529 83.667L401.602 86.0616ZM426.902 80.4896L426.96 79.2898L425.921 78.147L425.978 76.9472L422.43 77.9806L421.34 77.9286L420.306 76.6768L418.016 76.5676L417.958 77.7674L418.997 78.9102C421.251 79.0176 422.342 79.8349 422.269 81.362L426.902 80.4896ZM410.489 78.5046L408.469 75.0193L410.65 75.1233L410.811 71.7419L407.487 70.3809L406.397 70.3289L406.339 71.5287L407.378 72.6715L407.108 78.3434L410.489 78.5046ZM415.616 78.749L412.396 75.2064L412.234 78.5878L415.616 78.749ZM415.829 74.2769L415.938 71.9863L413.757 69.5865L411.466 71.7731L413.538 74.1677L415.829 74.2769ZM403.774 65.7215L406.174 63.5401L407.264 63.5921L407.103 66.9735L405.955 68.1213L406.994 69.2641L403.613 69.1029L403.774 65.7215ZM418.447 67.5142L418.556 65.2236L419.647 65.2756L421.828 67.6754L421.771 68.8753L420.628 69.914L418.447 67.5142ZM398.102 65.4512L398.159 64.2513L399.302 63.2126L402.522 66.7551L402.465 67.955L400.283 67.851L398.102 65.4512ZM403.793 95.1307L404.936 94.0919L407.117 96.4917L404.723 98.564L403.632 98.5121L403.793 95.1307ZM424.845 93.8384C424.734 96.1654 425.442 97.3652 426.969 97.438L426.097 92.8048L424.897 92.7476L424.845 93.8384ZM402.859 78.0316L405.259 75.8502L403.129 72.3596L402.039 72.3076L400.891 73.4555L401.768 77.9796L402.859 78.0316ZM418.893 76.5001L418.945 75.4093L414.416 74.1002L413.325 74.0482L413.273 75.139L414.312 76.2817L418.893 76.5001ZM403.893 70.1002L403.945 69.0094L401.654 68.9002L401.493 72.2816L403.893 70.1002ZM414.853 64.9378L418.343 65.1042L418.234 67.3948L414.744 67.2284L414.853 64.9378ZM408.919 102.262L411.314 100.19L412.405 100.242L412.243 103.624L408.862 103.462L408.919 102.262ZM408.089 82.9818L403.674 81.5688L402.417 82.7115L403.404 87.2408L408.089 82.9818ZM405.04 87.3188L405.092 86.228L401.768 84.867L400.677 84.815L400.62 86.0148L401.659 87.1576L405.04 87.3188ZM416.436 86.7688L417.636 86.826L417.745 84.5354L414.255 84.369L416.436 86.7688ZM410.541 79.7097L410.598 78.5098L409.559 77.3671L409.617 76.1672L406.069 77.2007L404.978 77.1487L403.945 75.8968L401.654 75.7877L401.597 76.9875L402.636 78.1303C404.89 78.2377 405.981 79.055 405.908 80.582L410.541 79.7097ZM409.996 79.6837L411.144 78.5358L412.286 79.7929L415.668 79.954L415.938 74.2821L411.196 77.4451L410.105 77.3931L408.962 76.136C409.104 73.1546 410.339 71.7194 412.666 71.8303L412.775 69.5397L411.627 68.3917L407.103 69.2693L408.142 70.4121L406.671 78.3226L406.614 79.5225L409.996 79.6837ZM403.181 78.1563L402.142 77.0135C402.361 72.4323 403.597 70.1954 405.851 70.3029L405.955 68.1213L403.665 68.0121L401.27 72.3803L400.999 78.0523L403.181 78.1563ZM417.138 72.0435L417.299 68.6621L415.009 68.5529L414.847 71.9343L417.138 72.0435ZM402.086 66.7343L402.195 64.4437L403.286 64.4957L405.467 66.8955L405.41 68.0953L404.267 69.1341L402.086 66.7343ZM420.155 95.9106L421.297 94.8719L423.479 97.2716L421.084 99.344L419.993 99.292L420.155 95.9106ZM455.386 95.2943C455.275 97.6212 455.983 98.8211 457.511 98.8939L456.638 94.2607L455.438 94.2035L455.386 95.2943ZM463.401 94.5831L463.453 93.4923L464.601 92.3445L464.653 91.2537L461.329 89.8927L460.238 89.8407L460.072 93.3311L463.401 94.5831ZM420.254 70.8801L420.306 69.7894L418.016 69.6802L417.855 73.0615L420.254 70.8801ZM396.101 95.9666L396.205 93.785L398.282 96.0705L398.173 98.3612L396.101 95.9666ZM396.589 97.1924L396.75 93.811L400.188 92.7724C402.443 92.8798 403.897 94.4797 404.551 97.572L403.299 98.6055L396.589 97.1924ZM393.094 85.6561L396.584 85.8225L396.532 86.9132L394.132 89.0946L392.932 89.0374L393.094 85.6561ZM424.451 83.7618L420.036 82.3488L418.779 83.4914L419.765 88.0207L424.451 83.7618ZM401.602 86.0616L405.092 86.228C404.618 83.946 403.163 82.3462 400.729 81.4284L400.672 82.6283L399.529 83.667L401.602 86.0616ZM426.902 80.4896L426.96 79.2898L425.921 78.147L425.978 76.9472L422.43 77.9806L421.34 77.9286L420.306 76.6768L418.016 76.5676L417.958 77.7674L418.997 78.9102C421.251 79.0176 422.342 79.8349 422.269 81.362L426.902 80.4896ZM410.489 78.5046L408.469 75.0193L410.65 75.1233L410.811 71.7419L407.487 70.3809L406.397 70.3289L406.339 71.5287L407.378 72.6715L407.108 78.3434L410.489 78.5046ZM415.616 78.749L412.396 75.2064L412.234 78.5878L415.616 78.749ZM415.829 74.2769L415.938 71.9863L413.757 69.5865L411.466 71.7731L413.538 74.1677L415.829 74.2769ZM403.774 65.7215L406.174 63.5401L407.264 63.5921L407.103 66.9735L405.955 68.1213L406.994 69.2641L403.613 69.1029L403.774 65.7215ZM418.447 67.5142L418.556 65.2236L419.647 65.2756L421.828 67.6754L421.771 68.8753L420.628 69.914L418.447 67.5142ZM398.102 65.4512L398.159 64.2513L399.302 63.2126L402.522 66.7551L402.465 67.955L400.283 67.851L398.102 65.4512ZM403.793 95.1307L404.936 94.0919L407.117 96.4917L404.723 98.564L403.632 98.5121L403.793 95.1307ZM424.845 93.8384C424.734 96.1654 425.442 97.3652 426.969 97.438L426.097 92.8048L424.897 92.7476L424.845 93.8384ZM402.859 78.0316L405.259 75.8502L403.129 72.3596L402.039 72.3076L400.891 73.4555L401.768 77.9796L402.859 78.0316ZM418.893 76.5001L418.945 75.4093L414.416 74.1002L413.325 74.0482L413.273 75.139L414.312 76.2817L418.893 76.5001ZM403.893 70.1002L403.945 69.0094L401.654 68.9002L401.493 72.2816L403.893 70.1002ZM414.853 64.9378L418.343 65.1042L418.234 67.3948L414.744 67.2284L414.853 64.9378ZM408.919 102.262L411.314 100.19L412.405 100.242L412.243 103.624L408.862 103.462L408.919 102.262ZM408.089 82.9818L403.674 81.5688L402.417 82.7115L403.404 87.2408L408.089 82.9818ZM405.04 87.3188L405.092 86.228L401.768 84.867L400.677 84.815L400.62 86.0148L401.659 87.1576L405.04 87.3188ZM416.436 86.7688L417.636 86.826L417.745 84.5354L414.255 84.369L416.436 86.7688ZM410.541 79.7097L410.598 78.5098L409.559 77.3671L409.617 76.1672L406.069 77.2007L404.978 77.1487L403.945 75.8968L401.654 75.7877L401.597 76.9875L402.636 78.1303C404.89 78.2377 405.981 79.055 405.908 80.582L410.541 79.7097ZM409.996 79.6837L411.144 78.5358L412.286 79.7929L415.668 79.954L415.938 74.2821L411.196 77.4451L410.105 77.3931L408.962 76.136C409.104 73.1546 410.339 71.7194 412.666 71.8303L412.775 69.5397L411.627 68.3917L407.103 69.2693L408.142 70.4121L406.671 78.3226L406.614 79.5225L409.996 79.6837ZM403.181 78.1563L402.142 77.0135C402.361 72.4323 403.597 70.1954 405.851 70.3029L405.955 68.1213L403.665 68.0121L401.27 72.3803L400.999 78.0523L403.181 78.1563ZM417.138 72.0435L417.299 68.6621L415.009 68.5529L414.847 71.9343L417.138 72.0435ZM402.086 66.7343L402.195 64.4437L403.286 64.4957L405.467 66.8955L405.41 68.0953L404.267 69.1341L402.086 66.7343ZM419.475 87.2416L419.527 86.1508L417.236 86.0416L417.075 89.423L419.475 87.2416ZM395.809 113.554L395.97 110.172L399.409 109.134C401.663 109.241 403.117 110.841 403.771 113.933L402.52 114.967L395.809 113.554ZM423.671 100.123L419.256 98.7102L417.999 99.8529L418.985 104.382L423.671 100.123ZM400.822 102.423L404.312 102.589C403.838 100.307 402.384 98.7076 399.949 97.7899L399.892 98.9897L398.749 100.028L400.822 102.423ZM426.123 96.8511L426.18 95.6512L425.141 94.5085L425.198 93.3086L421.651 94.3421L420.56 94.2901L419.526 93.0382L417.236 92.929L417.178 94.1289L418.217 95.2716C420.471 95.3791 421.562 96.1964 421.489 97.7234L426.123 96.8511ZM409.709 94.8661L407.689 91.3807L409.87 91.4847L410.032 88.1033L406.707 86.7423L405.617 86.6903L405.559 87.8902L406.598 89.0329L406.328 94.7049L409.709 94.8661ZM414.836 95.1105L411.616 91.5679L411.454 94.9493L414.836 95.1105ZM415.049 90.6383L415.158 88.3477L412.977 85.9479L410.686 88.1345L412.758 90.5291L415.049 90.6383ZM402.994 82.083L405.394 79.9016L406.484 79.9536L406.323 83.335L405.175 84.4828L406.214 85.6256L402.833 85.4644L402.994 82.083ZM417.667 83.8757L417.776 81.5851L418.867 81.6371L421.049 84.0369L420.991 85.2367L419.849 86.2755L417.667 83.8757ZM397.322 81.8126L397.379 80.6128L398.522 79.574L401.742 83.1166L401.685 84.3164L399.503 84.2124L397.322 81.8126ZM403.013 111.492L404.156 110.453L406.337 112.853L403.943 114.926L402.852 114.874L403.013 111.492ZM424.065 110.2C423.954 112.527 424.662 113.727 426.189 113.799L425.317 109.166L424.117 109.109L424.065 110.2ZM437.59 113.14L437.913 106.378L435.513 108.559L435.409 110.741L437.59 113.14ZM402.079 94.393L404.479 92.2116L402.349 88.7211L401.259 88.6691L400.111 89.8169L400.988 94.341L402.079 94.393ZM418.113 92.8616L418.165 91.7708L413.636 90.4617L412.545 90.4097L412.493 91.5004L413.532 92.6432L418.113 92.8616ZM403.113 86.4617L403.165 85.3709L400.874 85.2617L400.713 88.6431L403.113 86.4617ZM414.073 81.2992L417.563 81.4656L417.454 83.7562L413.964 83.5898L414.073 81.2992ZM408.139 118.624L410.534 116.552L411.625 116.604L411.464 119.985L408.082 119.824L408.139 118.624ZM407.309 99.3433L402.894 97.9303L401.637 99.0729L402.624 103.602L407.309 99.3433ZM404.26 103.68L404.312 102.589L400.988 101.228L399.897 101.176L399.84 102.376L400.879 103.519L404.26 103.68ZM415.656 103.13L416.856 103.187L416.965 100.897L413.475 100.73L415.656 103.13ZM409.761 96.0711L409.818 94.8713L408.78 93.7285L408.837 92.5287L405.289 93.5621L404.198 93.5101L403.165 92.2583L400.874 92.1491L400.817 93.349L401.856 94.4917C404.11 94.5992 405.201 95.4164 405.128 96.9435L409.761 96.0711ZM409.216 96.0451L410.364 94.8973L411.506 96.1543L414.888 96.3155L415.158 90.6435L410.416 93.8065L409.325 93.7545L408.182 92.4975C408.324 89.5161 409.559 88.0808 411.886 88.1917L411.995 85.9011L410.847 84.7532L406.323 85.6308L407.362 86.7735L405.892 94.6841L405.834 95.8839L409.216 96.0451ZM402.401 94.5177L401.362 93.3749C401.581 88.7937 402.817 86.5569 405.071 86.6643L405.175 84.4828L402.885 84.3736L400.49 88.7417L400.22 94.4137L402.401 94.5177ZM416.358 88.4049L416.519 85.0235L414.229 84.9144L414.067 88.2957L416.358 88.4049ZM401.306 83.0958L401.415 80.8052L402.506 80.8572L404.687 83.257L404.63 84.4568L403.487 85.4956L401.306 83.0958ZM419.475 87.2416L419.527 86.1508L417.236 86.0416L417.075 89.423L419.475 87.2416ZM395.809 113.554L395.97 110.172L399.409 109.134C401.663 109.241 403.117 110.841 403.771 113.933L402.52 114.967L395.809 113.554ZM423.671 100.123L419.256 98.7102L417.999 99.8529L418.985 104.382L423.671 100.123ZM400.822 102.423L404.312 102.589C403.838 100.307 402.384 98.7076 399.949 97.7899L399.892 98.9897L398.749 100.028L400.822 102.423ZM426.123 96.8511L426.18 95.6512L425.141 94.5085L425.198 93.3086L421.651 94.3421L420.56 94.2901L419.526 93.0382L417.236 92.929L417.178 94.1289L418.217 95.2716C420.471 95.3791 421.562 96.1964 421.489 97.7234L426.123 96.8511ZM409.709 94.8661L407.689 91.3807L409.87 91.4847L410.032 88.1033L406.707 86.7423L405.617 86.6903L405.559 87.8902L406.598 89.0329L406.328 94.7049L409.709 94.8661ZM414.836 95.1105L411.616 91.5679L411.454 94.9493L414.836 95.1105ZM415.049 90.6383L415.158 88.3477L412.977 85.9479L410.686 88.1345L412.758 90.5291L415.049 90.6383ZM402.994 82.083L405.394 79.9016L406.484 79.9536L406.323 83.335L405.175 84.4828L406.214 85.6256L402.833 85.4644L402.994 82.083ZM417.667 83.8757L417.776 81.5851L418.867 81.6371L421.049 84.0369L420.991 85.2367L419.849 86.2755L417.667 83.8757ZM397.322 81.8126L397.379 80.6128L398.522 79.574L401.742 83.1166L401.685 84.3164L399.503 84.2124L397.322 81.8126ZM403.013 111.492L404.156 110.453L406.337 112.853L403.943 114.926L402.852 114.874L403.013 111.492ZM424.065 110.2C423.954 112.527 424.662 113.727 426.189 113.799L425.317 109.166L424.117 109.109L424.065 110.2ZM437.59 113.14L437.913 106.378L435.513 108.559L435.409 110.741L437.59 113.14ZM402.079 94.393L404.479 92.2116L402.349 88.7211L401.259 88.6691L400.111 89.8169L400.988 94.341L402.079 94.393ZM418.113 92.8616L418.165 91.7708L413.636 90.4617L412.545 90.4097L412.493 91.5004L413.532 92.6432L418.113 92.8616ZM403.113 86.4617L403.165 85.3709L400.874 85.2617L400.713 88.6431L403.113 86.4617ZM414.073 81.2992L417.563 81.4656L417.454 83.7562L413.964 83.5898L414.073 81.2992ZM408.139 118.624L410.534 116.552L411.625 116.604L411.464 119.985L408.082 119.824L408.139 118.624ZM407.309 99.3433L402.894 97.9303L401.637 99.0729L402.624 103.602L407.309 99.3433ZM404.26 103.68L404.312 102.589L400.988 101.228L399.897 101.176L399.84 102.376L400.879 103.519L404.26 103.68ZM415.656 103.13L416.856 103.187L416.965 100.897L413.475 100.73L415.656 103.13ZM409.761 96.0711L409.818 94.8713L408.78 93.7285L408.837 92.5287L405.289 93.5621L404.198 93.5101L403.165 92.2583L400.874 92.1491L400.817 93.349L401.856 94.4917C404.11 94.5992 405.201 95.4164 405.128 96.9435L409.761 96.0711ZM409.216 96.0451L410.364 94.8973L411.506 96.1543L414.888 96.3155L415.158 90.6435L410.416 93.8065L409.325 93.7545L408.182 92.4975C408.324 89.5161 409.559 88.0808 411.886 88.1917L411.995 85.9011L410.847 84.7532L406.323 85.6308L407.362 86.7735L405.892 94.6841L405.834 95.8839L409.216 96.0451ZM402.401 94.5177L401.362 93.3749C401.581 88.7937 402.817 86.5569 405.071 86.6643L405.175 84.4828L402.885 84.3736L400.49 88.7417L400.22 94.4137L402.401 94.5177ZM416.358 88.4049L416.519 85.0235L414.229 84.9144L414.067 88.2957L416.358 88.4049ZM401.306 83.0958L401.415 80.8052L402.506 80.8572L404.687 83.257L404.63 84.4568L403.487 85.4956L401.306 83.0958ZM594.497 71.3147L617.948 72.4326L621.116 74.7702L623.511 72.6978L625.588 74.9833L626.84 73.9498L629.022 74.0538C630.549 74.1266 631.241 75.6537 631.099 78.6351L635.571 78.8483L634.424 77.7003L634.481 76.5005L635.681 76.5577L649.975 81.7213L649.923 82.8121L647.471 86.0843L654.181 87.4974L655.324 86.4586L656.415 86.5106C659.943 87.4077 663.164 90.185 666.076 94.8425C668.33 94.95 669.403 96.1308 669.296 98.3851L668.049 101.605L669.14 101.657C672.121 101.799 673.576 102.634 673.503 104.161L673.451 105.252L670.999 108.524L674.328 109.776L675.471 108.737L680.504 122.424L680.4 124.606L678.109 124.496L677.792 131.15L674.197 135.461L668.686 134.105L665.253 135.035L664.214 133.892L663.071 134.931L662.137 131.606L654.127 134.504L653.088 133.361L651.998 133.309L648.564 134.239L647.526 133.096L646.326 133.039L645.183 134.078L636.343 131.47L635.2 132.509L635.148 133.6L634.109 132.457L633.018 132.405L628.494 133.282L622.314 120.743C620.06 120.636 619.021 118.728 619.198 115.019L618.055 116.058L614.674 115.897L612.601 113.502L613.744 112.464L613.796 111.373L609.324 111.16L609.22 113.341L604.8 112.037L601.475 112.972L601.527 111.881L600.276 112.915L595.803 112.702L595.907 110.52L592.635 110.364C592.493 113.346 590.568 114.748 586.859 114.571C578.531 121.098 573.269 129.046 571.073 138.416L569.982 138.364L571.021 139.507L568.148 153.91L570.22 156.305L570.168 157.396L567.825 160.673L567.773 161.764L568.812 162.907L568.755 164.107C565.992 163.975 562.195 165.652 557.364 169.139L557.416 168.048C555.162 167.941 553.983 168.978 553.879 171.159L552.788 171.107L551.749 169.965L547.225 170.842L548.264 171.985L548.155 174.276L547.116 173.133L543.683 174.062L544.612 177.496L545.703 177.548L549.193 175.418L551.484 175.528L551.375 177.818L549.084 177.709L548.98 179.89L552.2 183.433L553.291 183.485L553.452 180.104L554.543 180.156L556.938 178.083C560.31 179.192 562.094 180.771 562.287 182.821C558.579 182.644 556.69 183.283 556.621 184.737L558.693 187.132C561.674 187.274 563.636 185.108 564.578 180.634L566.869 180.743L565.726 181.782L565.669 182.982L566.708 184.125L565.565 185.163L566.656 185.215L565.404 188.545L566.333 191.978L568.624 189.791L567.694 186.358L568.785 186.41L573.413 183.351L574.613 183.408C574.436 187.117 577.693 189.131 584.383 189.449L585.312 192.883L588.751 191.844L596.386 194.504L602.11 193.684L605.331 194.93L608.873 191.71L612.145 194.162C612.36 189.653 613.558 187.451 615.74 187.555L621.412 187.826L621.729 181.172L627.505 176.965C627.613 174.711 628.394 173.618 629.848 173.688L638.74 175.205L643.264 174.327L646.484 177.87L646.646 174.488L648.827 174.592L649.975 175.74L651.118 174.701L659.958 177.309L662.244 175.232L662.192 176.323L663.334 175.284L667.806 175.497L668.954 176.645L670.097 175.606L671.188 175.658C677.064 177.76 679.974 179.393 679.919 180.557L677.633 182.634L675.447 180.343L675.343 182.525L678.511 187.158L674.968 190.379L674.916 191.469L677.207 191.578L677.098 193.869C674.844 193.762 673.663 194.835 673.555 197.089L674.594 198.232L674.542 199.323C674.31 204.195 669.155 210.654 659.078 218.701L657.987 218.649L658.091 216.468L654.71 216.307L655.749 217.449L655.697 218.54L653.25 223.999L652.159 223.947L648.882 221.604L647.791 221.552L648.83 222.695L648.669 226.076C645.178 225.91 642.526 226.512 640.711 227.884L637.382 226.632L637.33 227.722L633.896 230.948L631.71 228.657L627.025 232.916L621.462 232.651L619.389 230.256L619.441 229.165L620.584 228.127L619.706 223.603L618.507 223.545L618.293 228.018L619.228 233.638L610.284 233.211L609.032 234.245L607.941 234.193L606.902 233.05L606.954 231.959L605.812 232.998L604.721 232.946L601.392 231.694C601.322 233.148 600.16 233.822 597.906 233.714L581.322 230.737L578.927 232.81C575.146 232.629 564.143 228.752 545.919 221.178L546.028 218.888C548.282 218.995 549.444 218.322 549.513 216.867L548.366 215.72L547.275 215.668L541.608 217.584L541.925 210.93L540.834 210.878C540.692 213.86 539.858 215.314 538.331 215.241L528.831 203.528L528.883 202.437L531.174 202.546L531.226 201.456C525.99 201.206 523.497 198.463 523.746 193.228L524.837 193.28C524.322 188.809 522.573 186.503 519.592 186.361L519.701 184.07C519.77 182.616 520.932 181.942 523.186 182.05L523.238 180.959L518.766 180.746L518.875 178.455C518.983 176.201 521.254 175.18 525.69 175.391L525.742 174.3L520.231 172.944L519.088 173.983L517.94 172.835L517.992 171.745L521.483 169.615L524.755 172.067L525.903 170.919L525.078 165.304L525.234 162.032C519.707 161.768 516.779 160.499 516.45 158.224L516.716 152.661L518.02 148.241L516.986 146.989L517.038 145.899L519.802 133.786L520.95 134.934L523.131 135.038L523.183 133.947C520.929 133.84 519.856 132.659 519.963 130.405C522.076 119.719 525.43 112.044 530.025 107.38L529.096 103.946C533.674 102.707 536.087 99.4692 536.337 94.2335C543.578 87.5819 550.898 82.3189 558.298 78.4445L558.241 79.6443L557.098 80.6831L557.046 81.7738L561.467 83.0778L561.519 81.987L560.641 77.4629L563.965 76.5281L567.295 77.7801L568.541 74.5598L576.343 76.0249L577.434 76.0769L577.486 74.9861L575.304 74.8821L575.413 72.5915L594.497 71.3147ZM571.715 79.084L570.463 82.4134L571.502 83.5561L572.592 83.6081L573.735 82.5694L572.806 79.136L571.715 79.084ZM578.311 80.601L578.207 82.7826L581.641 81.853L581.693 80.7622L578.311 80.601ZM588.455 81.0846L588.403 82.1753L591.624 83.4221L592.766 82.3833L592.818 81.2926L588.455 81.0846ZM630.517 90.8516L632.589 93.2462L633.732 92.2075L633.789 91.0076L630.517 90.8516ZM631.337 96.5756L631.181 99.8479L633.363 99.9519L632.428 96.6276L631.337 96.5756ZM649.07 100.701L652.342 100.857L652.446 98.6751L651.355 98.6231L649.07 100.701ZM623.67 115.233L623.514 118.505L625.804 118.614L624.87 115.29L623.67 115.233ZM629.238 117.684L629.077 121.066L632.349 121.222L631.419 117.788L629.238 117.684ZM678.987 129.02L681.277 129.13L681.116 132.511L678.825 132.402L678.987 129.02ZM518.897 152.765L518.845 153.856L521.032 156.147L522.123 156.199L522.175 155.108L520.097 152.822L518.897 152.765ZM520.709 162.909L524.039 164.161L523.987 165.252L521.587 167.434L520.496 167.382L518.315 164.982L520.709 162.909ZM540.514 169.429L540.353 172.81L543.735 172.972L543.844 170.681L540.514 169.429ZM570.78 169.779L571.871 169.831L573.788 175.497L573.736 176.588L571.554 176.484C570.027 176.411 569.317 175.248 569.425 172.994L570.78 169.779ZM530.375 171.132L530.318 172.332L532.453 175.714C527.217 175.464 524.545 176.466 524.438 178.721L524.329 181.011L527.819 178.882C533.668 181.566 536.542 183.962 536.441 186.071L539.875 182.845C537.693 182.741 536.639 181.926 536.712 180.399L535.455 181.542L532.182 181.386L532.292 179.095C534.473 179.199 535.598 178.524 535.668 177.069C533.632 176.972 532.631 175.03 532.666 171.241L530.375 171.132ZM564.953 172.781L567.243 172.89L567.186 174.09L563.649 177.201L562.558 177.149L560.48 174.863L560.532 173.772L562.714 173.876L563.753 175.019L564.843 175.071L564.953 172.781ZM632.751 183.884L632.699 184.975L633.79 185.027L635.094 180.606C633.639 180.537 632.858 181.629 632.751 183.884ZM571.393 179.866L572.484 179.918L572.432 181.008L570.141 183.195L567.85 183.086L571.393 179.866ZM543.256 183.007L543.204 184.097L545.49 182.02L545.547 180.82L543.256 183.007ZM528.484 187.878L528.375 190.169L530.665 187.982L530.769 185.8L528.484 187.878ZM554.169 188.009L554.008 191.391L556.298 191.5L555.369 188.066L554.169 188.009ZM572.057 188.862L571.688 196.606L576.264 194.638L572.057 188.862ZM578.82 189.184L576.425 191.257L578.607 193.656L580.788 193.76L581.002 189.288L578.82 189.184ZM539.61 188.408L539.558 189.499L542.778 193.042L542.991 188.57L539.61 188.408ZM558.48 191.604L561.809 192.856L561.97 189.474L560.879 189.422L558.48 191.604ZM634.397 195.223L637.778 195.384L637.887 193.093L636.797 193.041L634.397 195.223ZM654.633 194.985L656.706 197.379L657.796 197.431L655.724 195.037L654.633 194.985ZM565.138 194.108L564.977 197.489L566.068 197.541L568.359 195.354L567.32 194.212L565.138 194.108ZM582.975 196.051L582.866 198.342L583.957 198.394L586.247 196.207L582.975 196.051ZM613.958 202.01L613.635 208.773L614.726 208.825L615.048 202.062L613.958 202.01ZM618.43 202.223L619.255 207.838L620.455 207.896L620.72 202.333L618.43 202.223ZM571.475 201.078L569.184 203.265L569.08 205.447L572.509 202.33L572.566 201.13L571.475 201.078ZM587.073 201.822L588.216 203.079L588.164 204.17L586.912 205.203L588.06 206.351L589.15 206.403L590.293 205.365L589.363 201.931L587.073 201.822ZM580.206 205.977L581.297 206.029L583.691 203.957L583.743 202.866L580.206 205.977ZM625.083 204.836L625.031 205.927L627.109 208.213L628.2 208.265L625.083 204.836ZM594.656 207.868L598.037 208.03L598.147 205.739L597.056 205.687L594.656 207.868ZM564.395 209.706L565.428 210.957L565.215 215.43L564.073 216.468L564.021 217.559L565.059 218.702L567.241 218.806L566.415 213.191L567.719 208.771L566.628 208.719L565.486 209.758L564.395 209.706ZM570.991 211.223L570.726 216.785L571.817 216.837L572.082 211.275L570.991 211.223ZM612.944 223.28L612.575 231.025L613.665 231.077L614.034 223.332L612.944 223.28ZM585.898 226.473L589.279 226.634L589.388 224.344L588.298 224.292L585.898 226.473ZM603.843 226.126L603.786 227.326L607.116 228.578L607.277 225.197L603.843 226.126ZM624.075 225.997L623.913 229.379L625.004 229.431L627.295 227.244L626.256 226.101L624.075 225.997Z" fill="#FFD600"/>
<path d="M1417.06 599.705L1443.7 598.356L1444.9 598.241L1446.21 599.322L1449.79 597.771C1478.78 594.99 1499.05 603.575 1510.62 623.528C1514.6 631.411 1516.88 638.469 1517.48 644.701C1519.45 665.281 1511.64 681.024 1494.04 691.928C1449.24 706.758 1426.96 715.405 1427.2 717.869L1427.31 719.065L1433.51 719.676L1457.53 717.371L1458.85 718.452L1460.03 717.131L1469.6 716.213L1470.91 717.294L1471.99 715.984L1482.86 714.941L1484.17 716.022L1485.25 714.711L1516.56 711.707C1518.59 711.512 1520.64 715.776 1522.72 724.499C1522.76 730.932 1522.26 734.197 1521.25 734.294L1524.8 746.131L1524.18 752.224L1520.25 750.187L1520.6 753.774L1513.42 754.463L1507.45 756.243L1507.33 755.047L1506.25 756.357L1414.73 765.14L1370.05 768.221C1369.82 765.829 1368.51 764.748 1366.11 764.978L1365.77 761.391C1362.71 729.505 1372.07 704.692 1393.84 686.952L1395.15 688.033L1397.65 687.793L1397.54 686.597L1395.04 686.837C1394.81 684.446 1405.58 678.147 1427.34 667.941L1429.73 667.711L1433.55 669.758C1433.28 666.932 1440.54 662.213 1455.34 655.6C1458.18 651.671 1459.5 648.692 1459.31 646.663C1458.74 640.72 1450.78 638.229 1435.44 639.189C1427.98 639.905 1422.63 643.271 1419.41 649.285C1417.38 649.479 1416.37 651.587 1416.39 655.607L1410.88 661.073L1404.8 661.657L1401.1 660.805L1395.23 662.575L1385.56 663.503L1380.66 662.766L1375.88 664.431L1362.62 665.704L1357.37 661.271C1354.93 635.835 1367.77 617.599 1395.89 606.563C1397.04 604.844 1404.1 602.558 1417.06 599.705ZM1607.83 582.497L1620.44 581.287L1621.74 582.259L1622.72 581.068C1639.39 579.468 1656.1 584.41 1672.85 595.894C1687.28 609.063 1695.71 628.366 1698.15 653.802C1701.71 690.905 1691.35 715.852 1667.05 728.641C1667.34 731.685 1657.63 735.322 1637.93 739.554L1636.74 738.571L1635.65 739.773L1635.76 740.968C1590.98 745.266 1561.86 731.824 1548.41 700.643L1541.19 673.471L1541.84 667.595L1540.85 657.268C1538.75 635.456 1546.84 615.372 1565.12 597.016C1578.45 588.79 1592.68 583.95 1607.83 582.497ZM1590.53 656.011L1591.3 664.055L1593.15 670.789L1592.29 674.382C1593.6 674.257 1595.56 678.712 1598.18 687.749C1605.37 697.079 1613.89 701.271 1623.74 700.325L1632.88 698.351L1634.07 699.334L1642.32 688.121C1645.44 683.287 1647.53 676.906 1648.6 668.979L1649.69 668.874L1648.48 667.783L1648.05 663.217L1649.03 662.026L1647.83 660.935L1647.39 656.369L1648.36 655.069L1647.17 654.087L1646.72 649.412L1647.7 648.221L1647.59 647.025C1646.58 647.123 1644.21 642.34 1640.51 632.676C1633.97 623.211 1625.05 619.021 1613.74 620.105C1601.13 621.315 1593.39 633.284 1590.53 656.011ZM1778.6 565.013L1805.24 563.663L1806.44 563.548L1807.75 564.629L1811.33 563.079C1840.31 560.298 1860.59 568.883 1872.16 588.836C1876.13 596.719 1878.42 603.776 1879.02 610.008C1880.99 630.589 1873.18 646.331 1855.58 657.236C1810.78 672.066 1788.5 680.713 1788.73 683.177L1788.85 684.372L1795.05 684.984L1819.07 682.679L1820.38 683.76L1821.57 682.439L1831.14 681.521L1832.45 682.602L1833.53 681.291L1844.4 680.248L1845.71 681.329L1846.79 680.019L1878.1 677.015C1880.13 676.82 1882.18 681.084 1884.26 689.807C1884.3 696.24 1883.8 699.505 1882.79 699.602L1886.34 711.438L1885.72 717.532L1881.79 715.495L1882.14 719.082L1874.96 719.77L1868.99 721.55L1868.87 720.355L1867.79 721.665L1776.27 730.448L1731.58 733.529C1731.36 731.137 1730.04 730.056 1727.65 730.286L1727.31 726.698C1724.25 694.813 1733.61 670 1755.38 652.26L1756.69 653.341L1759.19 653.101L1759.08 651.905L1756.58 652.145C1756.35 649.754 1767.11 643.455 1788.88 633.248L1791.27 633.019L1795.09 635.066C1794.82 632.24 1802.08 627.52 1816.88 620.908C1819.72 616.979 1821.04 613.999 1820.85 611.97C1820.28 606.028 1812.32 603.537 1796.98 604.497C1789.52 605.213 1784.17 608.578 1780.95 614.592C1778.92 614.787 1777.91 616.895 1777.93 620.915L1772.42 626.38L1766.34 626.964L1762.63 626.113L1756.77 627.882L1747.1 628.811L1742.2 628.074L1737.42 629.739L1724.16 631.011L1718.91 626.579C1716.47 601.143 1729.31 582.907 1757.43 571.871C1758.58 570.152 1765.64 567.865 1778.6 565.013ZM2019.32 502.422L2020.62 503.394L2020.73 504.59L2018.9 510.689L2019.98 509.379L2023.46 509.045L2028.58 513.27L2029.67 511.96L2030.86 511.845L2033.37 514.018L2030.01 515.547L2028.7 514.466L2026.42 514.685L2026.53 515.881C2028.85 515.658 2030.08 516.308 2030.23 517.83C2028.43 523.487 2025.18 526.542 2020.47 526.994C2016.41 527.384 2012.12 523.48 2007.61 515.283L2008.69 513.973L2012.16 513.639L2012.39 516.031L2013.59 515.916C2015.52 507.101 2017.43 502.602 2019.32 502.422ZM1953.01 548.825L1953.13 550.021L1954.21 548.711L1970.51 547.146L1971.82 548.227L1975.19 546.697L2003.35 545.202L2004.88 548.566L2007.27 548.336L2007.04 545.945C2035.54 548.841 2050.88 561.521 2053.03 583.986L2053.71 591.051C2054.22 596.414 2050.95 603.018 2043.87 610.864L2043.13 615.653C2056.02 627.288 2062.9 637.634 2063.77 646.693L2064.66 656.041L2063.68 657.232L2064.88 658.324L2065 659.519C2063.99 670.367 2058.33 680.71 2048.01 690.55C2032.52 700.665 2011.88 706.961 1986.08 709.436L1979.01 708.908L1977.93 710.219C1949.45 712.952 1927 704.136 1910.56 683.773C1907.73 678.705 1905.9 671.787 1905.06 663.019C1906.58 662.873 1907.23 661.64 1907.01 659.321L1908.09 658.011L1910.48 657.781L1911.68 658.873L1912.76 657.562L1917.44 657.114L1918.75 658.195L1919.83 656.884L1923.31 656.551L1927.01 658.608C1926.79 656.289 1927.48 655.053 1929.07 654.9L1943.31 655.837L1954.94 654.721C1967.66 664.544 1977.14 669.157 1983.37 668.559L1986.85 668.225C1998.08 667.147 2005.17 662.92 2008.12 655.543L2007.44 648.477C2002.21 641.958 1995.64 639.078 1987.74 639.836L1986.65 641.038L1944.58 645.074L1942.61 637.037L1942.49 635.841L1943.58 634.639L1943.47 633.443L1940.96 631.271L1941.71 627.688L1940.06 621.923L1941.04 620.731L1940.93 619.536L1939.51 616.162C1940 610.629 1942.46 607.651 1946.88 607.227C1979.38 602.206 1995.57 599.08 1995.45 597.848L1997.28 591.749C1996.68 585.517 1990.51 582.964 1978.77 584.091L1971.82 584.758C1956.76 592.492 1946.95 596.578 1942.39 597.017L1915.31 598.408L1915.2 597.212L1914.23 598.512L1913.03 598.627C1906.75 598.717 1903.52 597.857 1903.35 596.045L1902.9 591.371L1904.95 588.761L1906.26 589.842L1907.35 588.531L1907.24 587.444L1904.62 585.282C1906.44 578.306 1911.6 570.351 1920.1 561.417C1928.35 555.873 1939.32 551.675 1953.01 548.825Z" fill="#FFD600"/>
</svg>
